<mxfile host="app.diagrams.net" modified="2023-08-11T04:14:41.853Z" agent="Mozilla/5.0 (Windows NT 10.0; Win64; x64) AppleWebKit/537.36 (KHTML, like Gecko) Chrome/115.0.0.0 Safari/537.36" etag="J93VZoCKIXp8O7bxoyJe" version="21.6.7" type="github">
  <diagram name="Page-1" id="5d7acffa-a066-3a61-03fe-96351882024d">
    <mxGraphModel dx="-1150" dy="1485" grid="1" gridSize="10" guides="1" tooltips="1" connect="1" arrows="1" fold="1" page="1" pageScale="1" pageWidth="1100" pageHeight="850" background="#ffffff" math="0" shadow="0">
      <root>
        <mxCell id="0" />
        <mxCell id="1" parent="0" />
        <mxCell id="Ol1Bx7ECXMeju4HQNCgS-49" value="Role" style="shape=table;startSize=30;container=1;collapsible=1;childLayout=tableLayout;fixedRows=1;rowLines=0;fontStyle=1;align=center;resizeLast=1;html=1;strokeWidth=2;" parent="1" vertex="1">
          <mxGeometry x="2350" y="-280" width="230" height="95" as="geometry" />
        </mxCell>
        <mxCell id="Ol1Bx7ECXMeju4HQNCgS-50" value="" style="shape=tableRow;horizontal=0;startSize=0;swimlaneHead=0;swimlaneBody=0;fillColor=none;collapsible=0;dropTarget=0;points=[[0,0.5],[1,0.5]];portConstraint=eastwest;top=0;left=0;right=0;bottom=1;strokeWidth=2;" parent="Ol1Bx7ECXMeju4HQNCgS-49" vertex="1">
          <mxGeometry y="30" width="230" height="30" as="geometry" />
        </mxCell>
        <mxCell id="Ol1Bx7ECXMeju4HQNCgS-51" value="PK" style="shape=partialRectangle;connectable=0;fillColor=none;top=0;left=0;bottom=0;right=0;fontStyle=1;overflow=hidden;whiteSpace=wrap;html=1;strokeWidth=2;" parent="Ol1Bx7ECXMeju4HQNCgS-50" vertex="1">
          <mxGeometry width="30" height="30" as="geometry">
            <mxRectangle width="30" height="30" as="alternateBounds" />
          </mxGeometry>
        </mxCell>
        <mxCell id="Ol1Bx7ECXMeju4HQNCgS-52" value="role_id" style="shape=partialRectangle;connectable=0;fillColor=none;top=0;left=0;bottom=0;right=0;align=left;spacingLeft=6;fontStyle=5;overflow=hidden;whiteSpace=wrap;html=1;strokeWidth=2;" parent="Ol1Bx7ECXMeju4HQNCgS-50" vertex="1">
          <mxGeometry x="30" width="200" height="30" as="geometry">
            <mxRectangle width="200" height="30" as="alternateBounds" />
          </mxGeometry>
        </mxCell>
        <mxCell id="Ol1Bx7ECXMeju4HQNCgS-53" value="" style="shape=tableRow;horizontal=0;startSize=0;swimlaneHead=0;swimlaneBody=0;fillColor=none;collapsible=0;dropTarget=0;points=[[0,0.5],[1,0.5]];portConstraint=eastwest;top=0;left=0;right=0;bottom=0;strokeWidth=2;" parent="Ol1Bx7ECXMeju4HQNCgS-49" vertex="1">
          <mxGeometry y="60" width="230" height="35" as="geometry" />
        </mxCell>
        <mxCell id="Ol1Bx7ECXMeju4HQNCgS-54" value="" style="shape=partialRectangle;connectable=0;fillColor=none;top=0;left=0;bottom=0;right=0;editable=1;overflow=hidden;whiteSpace=wrap;html=1;strokeWidth=2;" parent="Ol1Bx7ECXMeju4HQNCgS-53" vertex="1">
          <mxGeometry width="30" height="35" as="geometry">
            <mxRectangle width="30" height="35" as="alternateBounds" />
          </mxGeometry>
        </mxCell>
        <mxCell id="Ol1Bx7ECXMeju4HQNCgS-55" value="name" style="shape=partialRectangle;connectable=0;fillColor=none;top=0;left=0;bottom=0;right=0;align=left;spacingLeft=6;overflow=hidden;whiteSpace=wrap;html=1;strokeWidth=2;" parent="Ol1Bx7ECXMeju4HQNCgS-53" vertex="1">
          <mxGeometry x="30" width="200" height="35" as="geometry">
            <mxRectangle width="200" height="35" as="alternateBounds" />
          </mxGeometry>
        </mxCell>
        <mxCell id="Ol1Bx7ECXMeju4HQNCgS-62" value="User" style="shape=table;startSize=30;container=1;collapsible=1;childLayout=tableLayout;fixedRows=1;rowLines=0;fontStyle=1;align=center;resizeLast=1;html=1;strokeWidth=2;" parent="1" vertex="1">
          <mxGeometry x="2350" y="180" width="230" height="340" as="geometry" />
        </mxCell>
        <mxCell id="Ol1Bx7ECXMeju4HQNCgS-63" value="" style="shape=tableRow;horizontal=0;startSize=0;swimlaneHead=0;swimlaneBody=0;fillColor=none;collapsible=0;dropTarget=0;points=[[0,0.5],[1,0.5]];portConstraint=eastwest;top=0;left=0;right=0;bottom=1;strokeWidth=2;" parent="Ol1Bx7ECXMeju4HQNCgS-62" vertex="1">
          <mxGeometry y="30" width="230" height="30" as="geometry" />
        </mxCell>
        <mxCell id="Ol1Bx7ECXMeju4HQNCgS-64" value="PK" style="shape=partialRectangle;connectable=0;fillColor=none;top=0;left=0;bottom=0;right=0;fontStyle=1;overflow=hidden;whiteSpace=wrap;html=1;strokeWidth=2;" parent="Ol1Bx7ECXMeju4HQNCgS-63" vertex="1">
          <mxGeometry width="30" height="30" as="geometry">
            <mxRectangle width="30" height="30" as="alternateBounds" />
          </mxGeometry>
        </mxCell>
        <mxCell id="Ol1Bx7ECXMeju4HQNCgS-65" value="user_id" style="shape=partialRectangle;connectable=0;fillColor=none;top=0;left=0;bottom=0;right=0;align=left;spacingLeft=6;fontStyle=5;overflow=hidden;whiteSpace=wrap;html=1;strokeWidth=2;" parent="Ol1Bx7ECXMeju4HQNCgS-63" vertex="1">
          <mxGeometry x="30" width="200" height="30" as="geometry">
            <mxRectangle width="200" height="30" as="alternateBounds" />
          </mxGeometry>
        </mxCell>
        <mxCell id="Ol1Bx7ECXMeju4HQNCgS-66" value="" style="shape=tableRow;horizontal=0;startSize=0;swimlaneHead=0;swimlaneBody=0;fillColor=none;collapsible=0;dropTarget=0;points=[[0,0.5],[1,0.5]];portConstraint=eastwest;top=0;left=0;right=0;bottom=0;strokeWidth=2;" parent="Ol1Bx7ECXMeju4HQNCgS-62" vertex="1">
          <mxGeometry y="60" width="230" height="35" as="geometry" />
        </mxCell>
        <mxCell id="Ol1Bx7ECXMeju4HQNCgS-67" value="" style="shape=partialRectangle;connectable=0;fillColor=none;top=0;left=0;bottom=0;right=0;editable=1;overflow=hidden;whiteSpace=wrap;html=1;strokeWidth=2;" parent="Ol1Bx7ECXMeju4HQNCgS-66" vertex="1">
          <mxGeometry width="30" height="35" as="geometry">
            <mxRectangle width="30" height="35" as="alternateBounds" />
          </mxGeometry>
        </mxCell>
        <mxCell id="Ol1Bx7ECXMeju4HQNCgS-68" value="username" style="shape=partialRectangle;connectable=0;fillColor=none;top=0;left=0;bottom=0;right=0;align=left;spacingLeft=6;overflow=hidden;whiteSpace=wrap;html=1;strokeWidth=2;" parent="Ol1Bx7ECXMeju4HQNCgS-66" vertex="1">
          <mxGeometry x="30" width="200" height="35" as="geometry">
            <mxRectangle width="200" height="35" as="alternateBounds" />
          </mxGeometry>
        </mxCell>
        <mxCell id="Ol1Bx7ECXMeju4HQNCgS-182" value="" style="shape=tableRow;horizontal=0;startSize=0;swimlaneHead=0;swimlaneBody=0;fillColor=none;collapsible=0;dropTarget=0;points=[[0,0.5],[1,0.5]];portConstraint=eastwest;top=0;left=0;right=0;bottom=0;strokeWidth=2;" parent="Ol1Bx7ECXMeju4HQNCgS-62" vertex="1">
          <mxGeometry y="95" width="230" height="35" as="geometry" />
        </mxCell>
        <mxCell id="Ol1Bx7ECXMeju4HQNCgS-183" value="" style="shape=partialRectangle;connectable=0;fillColor=none;top=0;left=0;bottom=0;right=0;editable=1;overflow=hidden;whiteSpace=wrap;html=1;strokeWidth=2;" parent="Ol1Bx7ECXMeju4HQNCgS-182" vertex="1">
          <mxGeometry width="30" height="35" as="geometry">
            <mxRectangle width="30" height="35" as="alternateBounds" />
          </mxGeometry>
        </mxCell>
        <mxCell id="Ol1Bx7ECXMeju4HQNCgS-184" value="password" style="shape=partialRectangle;connectable=0;fillColor=none;top=0;left=0;bottom=0;right=0;align=left;spacingLeft=6;overflow=hidden;whiteSpace=wrap;html=1;strokeWidth=2;" parent="Ol1Bx7ECXMeju4HQNCgS-182" vertex="1">
          <mxGeometry x="30" width="200" height="35" as="geometry">
            <mxRectangle width="200" height="35" as="alternateBounds" />
          </mxGeometry>
        </mxCell>
        <mxCell id="Ol1Bx7ECXMeju4HQNCgS-185" value="" style="shape=tableRow;horizontal=0;startSize=0;swimlaneHead=0;swimlaneBody=0;fillColor=none;collapsible=0;dropTarget=0;points=[[0,0.5],[1,0.5]];portConstraint=eastwest;top=0;left=0;right=0;bottom=0;strokeWidth=2;" parent="Ol1Bx7ECXMeju4HQNCgS-62" vertex="1">
          <mxGeometry y="130" width="230" height="35" as="geometry" />
        </mxCell>
        <mxCell id="Ol1Bx7ECXMeju4HQNCgS-186" value="" style="shape=partialRectangle;connectable=0;fillColor=none;top=0;left=0;bottom=0;right=0;editable=1;overflow=hidden;whiteSpace=wrap;html=1;strokeWidth=2;" parent="Ol1Bx7ECXMeju4HQNCgS-185" vertex="1">
          <mxGeometry width="30" height="35" as="geometry">
            <mxRectangle width="30" height="35" as="alternateBounds" />
          </mxGeometry>
        </mxCell>
        <mxCell id="Ol1Bx7ECXMeju4HQNCgS-187" value="email" style="shape=partialRectangle;connectable=0;fillColor=none;top=0;left=0;bottom=0;right=0;align=left;spacingLeft=6;overflow=hidden;whiteSpace=wrap;html=1;strokeWidth=2;" parent="Ol1Bx7ECXMeju4HQNCgS-185" vertex="1">
          <mxGeometry x="30" width="200" height="35" as="geometry">
            <mxRectangle width="200" height="35" as="alternateBounds" />
          </mxGeometry>
        </mxCell>
        <mxCell id="uvcMTvgXLrwL3tuYFdFg-7" value="" style="shape=tableRow;horizontal=0;startSize=0;swimlaneHead=0;swimlaneBody=0;fillColor=none;collapsible=0;dropTarget=0;points=[[0,0.5],[1,0.5]];portConstraint=eastwest;top=0;left=0;right=0;bottom=0;strokeWidth=2;" parent="Ol1Bx7ECXMeju4HQNCgS-62" vertex="1">
          <mxGeometry y="165" width="230" height="35" as="geometry" />
        </mxCell>
        <mxCell id="uvcMTvgXLrwL3tuYFdFg-8" value="" style="shape=partialRectangle;connectable=0;fillColor=none;top=0;left=0;bottom=0;right=0;editable=1;overflow=hidden;whiteSpace=wrap;html=1;strokeWidth=2;" parent="uvcMTvgXLrwL3tuYFdFg-7" vertex="1">
          <mxGeometry width="30" height="35" as="geometry">
            <mxRectangle width="30" height="35" as="alternateBounds" />
          </mxGeometry>
        </mxCell>
        <mxCell id="uvcMTvgXLrwL3tuYFdFg-9" value="locked" style="shape=partialRectangle;connectable=0;fillColor=none;top=0;left=0;bottom=0;right=0;align=left;spacingLeft=6;overflow=hidden;whiteSpace=wrap;html=1;strokeWidth=2;" parent="uvcMTvgXLrwL3tuYFdFg-7" vertex="1">
          <mxGeometry x="30" width="200" height="35" as="geometry">
            <mxRectangle width="200" height="35" as="alternateBounds" />
          </mxGeometry>
        </mxCell>
        <mxCell id="uvcMTvgXLrwL3tuYFdFg-10" value="" style="shape=tableRow;horizontal=0;startSize=0;swimlaneHead=0;swimlaneBody=0;fillColor=none;collapsible=0;dropTarget=0;points=[[0,0.5],[1,0.5]];portConstraint=eastwest;top=0;left=0;right=0;bottom=0;strokeWidth=2;" parent="Ol1Bx7ECXMeju4HQNCgS-62" vertex="1">
          <mxGeometry y="200" width="230" height="35" as="geometry" />
        </mxCell>
        <mxCell id="uvcMTvgXLrwL3tuYFdFg-11" value="" style="shape=partialRectangle;connectable=0;fillColor=none;top=0;left=0;bottom=0;right=0;editable=1;overflow=hidden;whiteSpace=wrap;html=1;strokeWidth=2;" parent="uvcMTvgXLrwL3tuYFdFg-10" vertex="1">
          <mxGeometry width="30" height="35" as="geometry">
            <mxRectangle width="30" height="35" as="alternateBounds" />
          </mxGeometry>
        </mxCell>
        <mxCell id="uvcMTvgXLrwL3tuYFdFg-12" value="enabled" style="shape=partialRectangle;connectable=0;fillColor=none;top=0;left=0;bottom=0;right=0;align=left;spacingLeft=6;overflow=hidden;whiteSpace=wrap;html=1;strokeWidth=2;" parent="uvcMTvgXLrwL3tuYFdFg-10" vertex="1">
          <mxGeometry x="30" width="200" height="35" as="geometry">
            <mxRectangle width="200" height="35" as="alternateBounds" />
          </mxGeometry>
        </mxCell>
        <mxCell id="uvcMTvgXLrwL3tuYFdFg-13" value="" style="shape=tableRow;horizontal=0;startSize=0;swimlaneHead=0;swimlaneBody=0;fillColor=none;collapsible=0;dropTarget=0;points=[[0,0.5],[1,0.5]];portConstraint=eastwest;top=0;left=0;right=0;bottom=0;strokeWidth=2;" parent="Ol1Bx7ECXMeju4HQNCgS-62" vertex="1">
          <mxGeometry y="235" width="230" height="35" as="geometry" />
        </mxCell>
        <mxCell id="uvcMTvgXLrwL3tuYFdFg-14" value="" style="shape=partialRectangle;connectable=0;fillColor=none;top=0;left=0;bottom=0;right=0;editable=1;overflow=hidden;whiteSpace=wrap;html=1;strokeWidth=2;" parent="uvcMTvgXLrwL3tuYFdFg-13" vertex="1">
          <mxGeometry width="30" height="35" as="geometry">
            <mxRectangle width="30" height="35" as="alternateBounds" />
          </mxGeometry>
        </mxCell>
        <mxCell id="uvcMTvgXLrwL3tuYFdFg-15" value="changed_password" style="shape=partialRectangle;connectable=0;fillColor=none;top=0;left=0;bottom=0;right=0;align=left;spacingLeft=6;overflow=hidden;whiteSpace=wrap;html=1;strokeWidth=2;" parent="uvcMTvgXLrwL3tuYFdFg-13" vertex="1">
          <mxGeometry x="30" width="200" height="35" as="geometry">
            <mxRectangle width="200" height="35" as="alternateBounds" />
          </mxGeometry>
        </mxCell>
        <mxCell id="uvcMTvgXLrwL3tuYFdFg-1" value="" style="shape=tableRow;horizontal=0;startSize=0;swimlaneHead=0;swimlaneBody=0;fillColor=none;collapsible=0;dropTarget=0;points=[[0,0.5],[1,0.5]];portConstraint=eastwest;top=0;left=0;right=0;bottom=0;strokeWidth=2;" parent="Ol1Bx7ECXMeju4HQNCgS-62" vertex="1">
          <mxGeometry y="270" width="230" height="35" as="geometry" />
        </mxCell>
        <mxCell id="uvcMTvgXLrwL3tuYFdFg-2" value="FK" style="shape=partialRectangle;connectable=0;fillColor=none;top=0;left=0;bottom=0;right=0;editable=1;overflow=hidden;whiteSpace=wrap;html=1;strokeWidth=2;" parent="uvcMTvgXLrwL3tuYFdFg-1" vertex="1">
          <mxGeometry width="30" height="35" as="geometry">
            <mxRectangle width="30" height="35" as="alternateBounds" />
          </mxGeometry>
        </mxCell>
        <mxCell id="uvcMTvgXLrwL3tuYFdFg-3" value="student_id" style="shape=partialRectangle;connectable=0;fillColor=none;top=0;left=0;bottom=0;right=0;align=left;spacingLeft=6;overflow=hidden;whiteSpace=wrap;html=1;strokeWidth=2;" parent="uvcMTvgXLrwL3tuYFdFg-1" vertex="1">
          <mxGeometry x="30" width="200" height="35" as="geometry">
            <mxRectangle width="200" height="35" as="alternateBounds" />
          </mxGeometry>
        </mxCell>
        <mxCell id="uvcMTvgXLrwL3tuYFdFg-4" value="" style="shape=tableRow;horizontal=0;startSize=0;swimlaneHead=0;swimlaneBody=0;fillColor=none;collapsible=0;dropTarget=0;points=[[0,0.5],[1,0.5]];portConstraint=eastwest;top=0;left=0;right=0;bottom=0;strokeWidth=2;" parent="Ol1Bx7ECXMeju4HQNCgS-62" vertex="1">
          <mxGeometry y="305" width="230" height="35" as="geometry" />
        </mxCell>
        <mxCell id="uvcMTvgXLrwL3tuYFdFg-5" value="FK" style="shape=partialRectangle;connectable=0;fillColor=none;top=0;left=0;bottom=0;right=0;editable=1;overflow=hidden;whiteSpace=wrap;html=1;strokeWidth=2;" parent="uvcMTvgXLrwL3tuYFdFg-4" vertex="1">
          <mxGeometry width="30" height="35" as="geometry">
            <mxRectangle width="30" height="35" as="alternateBounds" />
          </mxGeometry>
        </mxCell>
        <mxCell id="uvcMTvgXLrwL3tuYFdFg-6" value="teacher_id" style="shape=partialRectangle;connectable=0;fillColor=none;top=0;left=0;bottom=0;right=0;align=left;spacingLeft=6;overflow=hidden;whiteSpace=wrap;html=1;strokeWidth=2;" parent="uvcMTvgXLrwL3tuYFdFg-4" vertex="1">
          <mxGeometry x="30" width="200" height="35" as="geometry">
            <mxRectangle width="200" height="35" as="alternateBounds" />
          </mxGeometry>
        </mxCell>
        <mxCell id="Ol1Bx7ECXMeju4HQNCgS-256" style="edgeStyle=orthogonalEdgeStyle;rounded=0;orthogonalLoop=1;jettySize=auto;html=1;endArrow=ERoneToMany;endFill=0;exitX=0;exitY=0.5;exitDx=0;exitDy=0;entryX=0;entryY=0.5;entryDx=0;entryDy=0;strokeWidth=2;" parent="1" source="Ol1Bx7ECXMeju4HQNCgS-50" target="Ol1Bx7ECXMeju4HQNCgS-254" edge="1">
          <mxGeometry relative="1" as="geometry">
            <mxPoint x="2140" y="-210" as="targetPoint" />
          </mxGeometry>
        </mxCell>
        <mxCell id="Ol1Bx7ECXMeju4HQNCgS-252" value="User_Role" style="swimlane;fontStyle=0;childLayout=stackLayout;horizontal=1;startSize=26;horizontalStack=0;resizeParent=1;resizeParentMax=0;resizeLast=0;collapsible=1;marginBottom=0;align=center;fontSize=14;strokeWidth=2;" parent="1" vertex="1">
          <mxGeometry x="2385" y="-30" width="160" height="86" as="geometry" />
        </mxCell>
        <mxCell id="Ol1Bx7ECXMeju4HQNCgS-254" value="role_id" style="text;strokeColor=none;fillColor=none;spacingLeft=4;spacingRight=4;overflow=hidden;rotatable=0;points=[[0,0.5],[1,0.5]];portConstraint=eastwest;fontSize=12;whiteSpace=wrap;html=1;strokeWidth=2;" parent="Ol1Bx7ECXMeju4HQNCgS-252" vertex="1">
          <mxGeometry y="26" width="160" height="30" as="geometry" />
        </mxCell>
        <mxCell id="Ol1Bx7ECXMeju4HQNCgS-255" value="user_id" style="text;strokeColor=none;fillColor=none;spacingLeft=4;spacingRight=4;overflow=hidden;rotatable=0;points=[[0,0.5],[1,0.5]];portConstraint=eastwest;fontSize=12;whiteSpace=wrap;html=1;strokeWidth=2;" parent="Ol1Bx7ECXMeju4HQNCgS-252" vertex="1">
          <mxGeometry y="56" width="160" height="30" as="geometry" />
        </mxCell>
        <mxCell id="Ol1Bx7ECXMeju4HQNCgS-257" style="edgeStyle=orthogonalEdgeStyle;rounded=0;orthogonalLoop=1;jettySize=auto;html=1;endArrow=ERoneToMany;endFill=0;exitX=0;exitY=0.5;exitDx=0;exitDy=0;entryX=0;entryY=0.5;entryDx=0;entryDy=0;strokeWidth=2;" parent="1" source="Ol1Bx7ECXMeju4HQNCgS-63" target="Ol1Bx7ECXMeju4HQNCgS-255" edge="1">
          <mxGeometry relative="1" as="geometry">
            <mxPoint x="2370" y="-160" as="targetPoint" />
          </mxGeometry>
        </mxCell>
        <mxCell id="kvEU20mS_WYgNTy0aMle-322" value="Student" style="shape=table;startSize=30;container=1;collapsible=1;childLayout=tableLayout;fixedRows=1;rowLines=0;fontStyle=1;align=center;resizeLast=1;html=1;strokeWidth=2;" parent="1" vertex="1">
          <mxGeometry x="2800" y="-10" width="270" height="420" as="geometry" />
        </mxCell>
        <mxCell id="kvEU20mS_WYgNTy0aMle-323" value="" style="shape=tableRow;horizontal=0;startSize=0;swimlaneHead=0;swimlaneBody=0;fillColor=none;collapsible=0;dropTarget=0;points=[[0,0.5],[1,0.5]];portConstraint=eastwest;top=0;left=0;right=0;bottom=1;" parent="kvEU20mS_WYgNTy0aMle-322" vertex="1">
          <mxGeometry y="30" width="270" height="30" as="geometry" />
        </mxCell>
        <mxCell id="kvEU20mS_WYgNTy0aMle-324" value="PK" style="shape=partialRectangle;connectable=0;fillColor=none;top=0;left=0;bottom=0;right=0;fontStyle=1;overflow=hidden;whiteSpace=wrap;html=1;" parent="kvEU20mS_WYgNTy0aMle-323" vertex="1">
          <mxGeometry width="30" height="30" as="geometry">
            <mxRectangle width="30" height="30" as="alternateBounds" />
          </mxGeometry>
        </mxCell>
        <mxCell id="kvEU20mS_WYgNTy0aMle-325" value="id" style="shape=partialRectangle;connectable=0;fillColor=none;top=0;left=0;bottom=0;right=0;align=left;spacingLeft=6;fontStyle=5;overflow=hidden;whiteSpace=wrap;html=1;" parent="kvEU20mS_WYgNTy0aMle-323" vertex="1">
          <mxGeometry x="30" width="240" height="30" as="geometry">
            <mxRectangle width="240" height="30" as="alternateBounds" />
          </mxGeometry>
        </mxCell>
        <mxCell id="kvEU20mS_WYgNTy0aMle-326" value="" style="shape=tableRow;horizontal=0;startSize=0;swimlaneHead=0;swimlaneBody=0;fillColor=none;collapsible=0;dropTarget=0;points=[[0,0.5],[1,0.5]];portConstraint=eastwest;top=0;left=0;right=0;bottom=0;" parent="kvEU20mS_WYgNTy0aMle-322" vertex="1">
          <mxGeometry y="60" width="270" height="30" as="geometry" />
        </mxCell>
        <mxCell id="kvEU20mS_WYgNTy0aMle-327" value="" style="shape=partialRectangle;connectable=0;fillColor=none;top=0;left=0;bottom=0;right=0;editable=1;overflow=hidden;whiteSpace=wrap;html=1;" parent="kvEU20mS_WYgNTy0aMle-326" vertex="1">
          <mxGeometry width="30" height="30" as="geometry">
            <mxRectangle width="30" height="30" as="alternateBounds" />
          </mxGeometry>
        </mxCell>
        <mxCell id="kvEU20mS_WYgNTy0aMle-328" value="code" style="shape=partialRectangle;connectable=0;fillColor=none;top=0;left=0;bottom=0;right=0;align=left;spacingLeft=6;overflow=hidden;whiteSpace=wrap;html=1;" parent="kvEU20mS_WYgNTy0aMle-326" vertex="1">
          <mxGeometry x="30" width="240" height="30" as="geometry">
            <mxRectangle width="240" height="30" as="alternateBounds" />
          </mxGeometry>
        </mxCell>
        <mxCell id="kvEU20mS_WYgNTy0aMle-329" value="" style="shape=tableRow;horizontal=0;startSize=0;swimlaneHead=0;swimlaneBody=0;fillColor=none;collapsible=0;dropTarget=0;points=[[0,0.5],[1,0.5]];portConstraint=eastwest;top=0;left=0;right=0;bottom=0;" parent="kvEU20mS_WYgNTy0aMle-322" vertex="1">
          <mxGeometry y="90" width="270" height="30" as="geometry" />
        </mxCell>
        <mxCell id="kvEU20mS_WYgNTy0aMle-330" value="" style="shape=partialRectangle;connectable=0;fillColor=none;top=0;left=0;bottom=0;right=0;editable=1;overflow=hidden;whiteSpace=wrap;html=1;" parent="kvEU20mS_WYgNTy0aMle-329" vertex="1">
          <mxGeometry width="30" height="30" as="geometry">
            <mxRectangle width="30" height="30" as="alternateBounds" />
          </mxGeometry>
        </mxCell>
        <mxCell id="kvEU20mS_WYgNTy0aMle-331" value="first_name" style="shape=partialRectangle;connectable=0;fillColor=none;top=0;left=0;bottom=0;right=0;align=left;spacingLeft=6;overflow=hidden;whiteSpace=wrap;html=1;" parent="kvEU20mS_WYgNTy0aMle-329" vertex="1">
          <mxGeometry x="30" width="240" height="30" as="geometry">
            <mxRectangle width="240" height="30" as="alternateBounds" />
          </mxGeometry>
        </mxCell>
        <mxCell id="kvEU20mS_WYgNTy0aMle-332" value="" style="shape=tableRow;horizontal=0;startSize=0;swimlaneHead=0;swimlaneBody=0;fillColor=none;collapsible=0;dropTarget=0;points=[[0,0.5],[1,0.5]];portConstraint=eastwest;top=0;left=0;right=0;bottom=0;" parent="kvEU20mS_WYgNTy0aMle-322" vertex="1">
          <mxGeometry y="120" width="270" height="30" as="geometry" />
        </mxCell>
        <mxCell id="kvEU20mS_WYgNTy0aMle-333" value="" style="shape=partialRectangle;connectable=0;fillColor=none;top=0;left=0;bottom=0;right=0;editable=1;overflow=hidden;whiteSpace=wrap;html=1;" parent="kvEU20mS_WYgNTy0aMle-332" vertex="1">
          <mxGeometry width="30" height="30" as="geometry">
            <mxRectangle width="30" height="30" as="alternateBounds" />
          </mxGeometry>
        </mxCell>
        <mxCell id="kvEU20mS_WYgNTy0aMle-334" value="last_name" style="shape=partialRectangle;connectable=0;fillColor=none;top=0;left=0;bottom=0;right=0;align=left;spacingLeft=6;overflow=hidden;whiteSpace=wrap;html=1;" parent="kvEU20mS_WYgNTy0aMle-332" vertex="1">
          <mxGeometry x="30" width="240" height="30" as="geometry">
            <mxRectangle width="240" height="30" as="alternateBounds" />
          </mxGeometry>
        </mxCell>
        <mxCell id="kvEU20mS_WYgNTy0aMle-335" value="" style="shape=tableRow;horizontal=0;startSize=0;swimlaneHead=0;swimlaneBody=0;fillColor=none;collapsible=0;dropTarget=0;points=[[0,0.5],[1,0.5]];portConstraint=eastwest;top=0;left=0;right=0;bottom=0;" parent="kvEU20mS_WYgNTy0aMle-322" vertex="1">
          <mxGeometry y="150" width="270" height="30" as="geometry" />
        </mxCell>
        <mxCell id="kvEU20mS_WYgNTy0aMle-336" value="" style="shape=partialRectangle;connectable=0;fillColor=none;top=0;left=0;bottom=0;right=0;editable=1;overflow=hidden;whiteSpace=wrap;html=1;" parent="kvEU20mS_WYgNTy0aMle-335" vertex="1">
          <mxGeometry width="30" height="30" as="geometry">
            <mxRectangle width="30" height="30" as="alternateBounds" />
          </mxGeometry>
        </mxCell>
        <mxCell id="kvEU20mS_WYgNTy0aMle-337" value="dob" style="shape=partialRectangle;connectable=0;fillColor=none;top=0;left=0;bottom=0;right=0;align=left;spacingLeft=6;overflow=hidden;whiteSpace=wrap;html=1;" parent="kvEU20mS_WYgNTy0aMle-335" vertex="1">
          <mxGeometry x="30" width="240" height="30" as="geometry">
            <mxRectangle width="240" height="30" as="alternateBounds" />
          </mxGeometry>
        </mxCell>
        <mxCell id="kvEU20mS_WYgNTy0aMle-338" value="" style="shape=tableRow;horizontal=0;startSize=0;swimlaneHead=0;swimlaneBody=0;fillColor=none;collapsible=0;dropTarget=0;points=[[0,0.5],[1,0.5]];portConstraint=eastwest;top=0;left=0;right=0;bottom=0;" parent="kvEU20mS_WYgNTy0aMle-322" vertex="1">
          <mxGeometry y="180" width="270" height="30" as="geometry" />
        </mxCell>
        <mxCell id="kvEU20mS_WYgNTy0aMle-339" value="" style="shape=partialRectangle;connectable=0;fillColor=none;top=0;left=0;bottom=0;right=0;editable=1;overflow=hidden;whiteSpace=wrap;html=1;" parent="kvEU20mS_WYgNTy0aMle-338" vertex="1">
          <mxGeometry width="30" height="30" as="geometry">
            <mxRectangle width="30" height="30" as="alternateBounds" />
          </mxGeometry>
        </mxCell>
        <mxCell id="kvEU20mS_WYgNTy0aMle-340" value="gender" style="shape=partialRectangle;connectable=0;fillColor=none;top=0;left=0;bottom=0;right=0;align=left;spacingLeft=6;overflow=hidden;whiteSpace=wrap;html=1;" parent="kvEU20mS_WYgNTy0aMle-338" vertex="1">
          <mxGeometry x="30" width="240" height="30" as="geometry">
            <mxRectangle width="240" height="30" as="alternateBounds" />
          </mxGeometry>
        </mxCell>
        <mxCell id="kvEU20mS_WYgNTy0aMle-341" value="" style="shape=tableRow;horizontal=0;startSize=0;swimlaneHead=0;swimlaneBody=0;fillColor=none;collapsible=0;dropTarget=0;points=[[0,0.5],[1,0.5]];portConstraint=eastwest;top=0;left=0;right=0;bottom=0;" parent="kvEU20mS_WYgNTy0aMle-322" vertex="1">
          <mxGeometry y="210" width="270" height="30" as="geometry" />
        </mxCell>
        <mxCell id="kvEU20mS_WYgNTy0aMle-342" value="" style="shape=partialRectangle;connectable=0;fillColor=none;top=0;left=0;bottom=0;right=0;editable=1;overflow=hidden;whiteSpace=wrap;html=1;" parent="kvEU20mS_WYgNTy0aMle-341" vertex="1">
          <mxGeometry width="30" height="30" as="geometry">
            <mxRectangle width="30" height="30" as="alternateBounds" />
          </mxGeometry>
        </mxCell>
        <mxCell id="kvEU20mS_WYgNTy0aMle-343" value="email" style="shape=partialRectangle;connectable=0;fillColor=none;top=0;left=0;bottom=0;right=0;align=left;spacingLeft=6;overflow=hidden;whiteSpace=wrap;html=1;" parent="kvEU20mS_WYgNTy0aMle-341" vertex="1">
          <mxGeometry x="30" width="240" height="30" as="geometry">
            <mxRectangle width="240" height="30" as="alternateBounds" />
          </mxGeometry>
        </mxCell>
        <mxCell id="kvEU20mS_WYgNTy0aMle-344" value="" style="shape=tableRow;horizontal=0;startSize=0;swimlaneHead=0;swimlaneBody=0;fillColor=none;collapsible=0;dropTarget=0;points=[[0,0.5],[1,0.5]];portConstraint=eastwest;top=0;left=0;right=0;bottom=0;" parent="kvEU20mS_WYgNTy0aMle-322" vertex="1">
          <mxGeometry y="240" width="270" height="30" as="geometry" />
        </mxCell>
        <mxCell id="kvEU20mS_WYgNTy0aMle-345" value="" style="shape=partialRectangle;connectable=0;fillColor=none;top=0;left=0;bottom=0;right=0;editable=1;overflow=hidden;whiteSpace=wrap;html=1;" parent="kvEU20mS_WYgNTy0aMle-344" vertex="1">
          <mxGeometry width="30" height="30" as="geometry">
            <mxRectangle width="30" height="30" as="alternateBounds" />
          </mxGeometry>
        </mxCell>
        <mxCell id="kvEU20mS_WYgNTy0aMle-346" value="phone_number" style="shape=partialRectangle;connectable=0;fillColor=none;top=0;left=0;bottom=0;right=0;align=left;spacingLeft=6;overflow=hidden;whiteSpace=wrap;html=1;" parent="kvEU20mS_WYgNTy0aMle-344" vertex="1">
          <mxGeometry x="30" width="240" height="30" as="geometry">
            <mxRectangle width="240" height="30" as="alternateBounds" />
          </mxGeometry>
        </mxCell>
        <mxCell id="kvEU20mS_WYgNTy0aMle-347" value="" style="shape=tableRow;horizontal=0;startSize=0;swimlaneHead=0;swimlaneBody=0;fillColor=none;collapsible=0;dropTarget=0;points=[[0,0.5],[1,0.5]];portConstraint=eastwest;top=0;left=0;right=0;bottom=0;" parent="kvEU20mS_WYgNTy0aMle-322" vertex="1">
          <mxGeometry y="270" width="270" height="30" as="geometry" />
        </mxCell>
        <mxCell id="kvEU20mS_WYgNTy0aMle-348" value="" style="shape=partialRectangle;connectable=0;fillColor=none;top=0;left=0;bottom=0;right=0;editable=1;overflow=hidden;whiteSpace=wrap;html=1;" parent="kvEU20mS_WYgNTy0aMle-347" vertex="1">
          <mxGeometry width="30" height="30" as="geometry">
            <mxRectangle width="30" height="30" as="alternateBounds" />
          </mxGeometry>
        </mxCell>
        <mxCell id="kvEU20mS_WYgNTy0aMle-349" value="address" style="shape=partialRectangle;connectable=0;fillColor=none;top=0;left=0;bottom=0;right=0;align=left;spacingLeft=6;overflow=hidden;whiteSpace=wrap;html=1;" parent="kvEU20mS_WYgNTy0aMle-347" vertex="1">
          <mxGeometry x="30" width="240" height="30" as="geometry">
            <mxRectangle width="240" height="30" as="alternateBounds" />
          </mxGeometry>
        </mxCell>
        <mxCell id="kvEU20mS_WYgNTy0aMle-350" value="" style="shape=tableRow;horizontal=0;startSize=0;swimlaneHead=0;swimlaneBody=0;fillColor=none;collapsible=0;dropTarget=0;points=[[0,0.5],[1,0.5]];portConstraint=eastwest;top=0;left=0;right=0;bottom=0;" parent="kvEU20mS_WYgNTy0aMle-322" vertex="1">
          <mxGeometry y="300" width="270" height="30" as="geometry" />
        </mxCell>
        <mxCell id="kvEU20mS_WYgNTy0aMle-351" value="" style="shape=partialRectangle;connectable=0;fillColor=none;top=0;left=0;bottom=0;right=0;editable=1;overflow=hidden;whiteSpace=wrap;html=1;" parent="kvEU20mS_WYgNTy0aMle-350" vertex="1">
          <mxGeometry width="30" height="30" as="geometry">
            <mxRectangle width="30" height="30" as="alternateBounds" />
          </mxGeometry>
        </mxCell>
        <mxCell id="kvEU20mS_WYgNTy0aMle-352" value="gpa" style="shape=partialRectangle;connectable=0;fillColor=none;top=0;left=0;bottom=0;right=0;align=left;spacingLeft=6;overflow=hidden;whiteSpace=wrap;html=1;" parent="kvEU20mS_WYgNTy0aMle-350" vertex="1">
          <mxGeometry x="30" width="240" height="30" as="geometry">
            <mxRectangle width="240" height="30" as="alternateBounds" />
          </mxGeometry>
        </mxCell>
        <mxCell id="kvEU20mS_WYgNTy0aMle-353" value="" style="shape=tableRow;horizontal=0;startSize=0;swimlaneHead=0;swimlaneBody=0;fillColor=none;collapsible=0;dropTarget=0;points=[[0,0.5],[1,0.5]];portConstraint=eastwest;top=0;left=0;right=0;bottom=0;" parent="kvEU20mS_WYgNTy0aMle-322" vertex="1">
          <mxGeometry y="330" width="270" height="30" as="geometry" />
        </mxCell>
        <mxCell id="kvEU20mS_WYgNTy0aMle-354" value="" style="shape=partialRectangle;connectable=0;fillColor=none;top=0;left=0;bottom=0;right=0;editable=1;overflow=hidden;whiteSpace=wrap;html=1;" parent="kvEU20mS_WYgNTy0aMle-353" vertex="1">
          <mxGeometry width="30" height="30" as="geometry">
            <mxRectangle width="30" height="30" as="alternateBounds" />
          </mxGeometry>
        </mxCell>
        <mxCell id="kvEU20mS_WYgNTy0aMle-355" value="credit" style="shape=partialRectangle;connectable=0;fillColor=none;top=0;left=0;bottom=0;right=0;align=left;spacingLeft=6;overflow=hidden;whiteSpace=wrap;html=1;" parent="kvEU20mS_WYgNTy0aMle-353" vertex="1">
          <mxGeometry x="30" width="240" height="30" as="geometry">
            <mxRectangle width="240" height="30" as="alternateBounds" />
          </mxGeometry>
        </mxCell>
        <mxCell id="kvEU20mS_WYgNTy0aMle-356" value="" style="shape=tableRow;horizontal=0;startSize=0;swimlaneHead=0;swimlaneBody=0;fillColor=none;collapsible=0;dropTarget=0;points=[[0,0.5],[1,0.5]];portConstraint=eastwest;top=0;left=0;right=0;bottom=0;" parent="kvEU20mS_WYgNTy0aMle-322" vertex="1">
          <mxGeometry y="360" width="270" height="30" as="geometry" />
        </mxCell>
        <mxCell id="kvEU20mS_WYgNTy0aMle-357" value="" style="shape=partialRectangle;connectable=0;fillColor=none;top=0;left=0;bottom=0;right=0;editable=1;overflow=hidden;whiteSpace=wrap;html=1;" parent="kvEU20mS_WYgNTy0aMle-356" vertex="1">
          <mxGeometry width="30" height="30" as="geometry">
            <mxRectangle width="30" height="30" as="alternateBounds" />
          </mxGeometry>
        </mxCell>
        <mxCell id="kvEU20mS_WYgNTy0aMle-358" value="status" style="shape=partialRectangle;connectable=0;fillColor=none;top=0;left=0;bottom=0;right=0;align=left;spacingLeft=6;overflow=hidden;whiteSpace=wrap;html=1;" parent="kvEU20mS_WYgNTy0aMle-356" vertex="1">
          <mxGeometry x="30" width="240" height="30" as="geometry">
            <mxRectangle width="240" height="30" as="alternateBounds" />
          </mxGeometry>
        </mxCell>
        <mxCell id="kvEU20mS_WYgNTy0aMle-359" value="" style="shape=tableRow;horizontal=0;startSize=0;swimlaneHead=0;swimlaneBody=0;fillColor=none;collapsible=0;dropTarget=0;points=[[0,0.5],[1,0.5]];portConstraint=eastwest;top=0;left=0;right=0;bottom=0;" parent="kvEU20mS_WYgNTy0aMle-322" vertex="1">
          <mxGeometry y="390" width="270" height="30" as="geometry" />
        </mxCell>
        <mxCell id="kvEU20mS_WYgNTy0aMle-360" value="FK" style="shape=partialRectangle;connectable=0;fillColor=none;top=0;left=0;bottom=0;right=0;editable=1;overflow=hidden;whiteSpace=wrap;html=1;" parent="kvEU20mS_WYgNTy0aMle-359" vertex="1">
          <mxGeometry width="30" height="30" as="geometry">
            <mxRectangle width="30" height="30" as="alternateBounds" />
          </mxGeometry>
        </mxCell>
        <mxCell id="kvEU20mS_WYgNTy0aMle-361" value="department" style="shape=partialRectangle;connectable=0;fillColor=none;top=0;left=0;bottom=0;right=0;align=left;spacingLeft=6;overflow=hidden;whiteSpace=wrap;html=1;" parent="kvEU20mS_WYgNTy0aMle-359" vertex="1">
          <mxGeometry x="30" width="240" height="30" as="geometry">
            <mxRectangle width="240" height="30" as="alternateBounds" />
          </mxGeometry>
        </mxCell>
        <mxCell id="kvEU20mS_WYgNTy0aMle-362" value="Teacher" style="shape=table;startSize=30;container=1;collapsible=1;childLayout=tableLayout;fixedRows=1;rowLines=0;fontStyle=1;align=center;resizeLast=1;html=1;strokeWidth=2;" parent="1" vertex="1">
          <mxGeometry x="3260" y="-490" width="230" height="330" as="geometry" />
        </mxCell>
        <mxCell id="kvEU20mS_WYgNTy0aMle-363" value="" style="shape=tableRow;horizontal=0;startSize=0;swimlaneHead=0;swimlaneBody=0;fillColor=none;collapsible=0;dropTarget=0;points=[[0,0.5],[1,0.5]];portConstraint=eastwest;top=0;left=0;right=0;bottom=1;" parent="kvEU20mS_WYgNTy0aMle-362" vertex="1">
          <mxGeometry y="30" width="230" height="30" as="geometry" />
        </mxCell>
        <mxCell id="kvEU20mS_WYgNTy0aMle-364" value="PK" style="shape=partialRectangle;connectable=0;fillColor=none;top=0;left=0;bottom=0;right=0;fontStyle=1;overflow=hidden;whiteSpace=wrap;html=1;" parent="kvEU20mS_WYgNTy0aMle-363" vertex="1">
          <mxGeometry width="30" height="30" as="geometry">
            <mxRectangle width="30" height="30" as="alternateBounds" />
          </mxGeometry>
        </mxCell>
        <mxCell id="kvEU20mS_WYgNTy0aMle-365" value="id" style="shape=partialRectangle;connectable=0;fillColor=none;top=0;left=0;bottom=0;right=0;align=left;spacingLeft=6;fontStyle=5;overflow=hidden;whiteSpace=wrap;html=1;" parent="kvEU20mS_WYgNTy0aMle-363" vertex="1">
          <mxGeometry x="30" width="200" height="30" as="geometry">
            <mxRectangle width="200" height="30" as="alternateBounds" />
          </mxGeometry>
        </mxCell>
        <mxCell id="kvEU20mS_WYgNTy0aMle-366" value="" style="shape=tableRow;horizontal=0;startSize=0;swimlaneHead=0;swimlaneBody=0;fillColor=none;collapsible=0;dropTarget=0;points=[[0,0.5],[1,0.5]];portConstraint=eastwest;top=0;left=0;right=0;bottom=0;" parent="kvEU20mS_WYgNTy0aMle-362" vertex="1">
          <mxGeometry y="60" width="230" height="30" as="geometry" />
        </mxCell>
        <mxCell id="kvEU20mS_WYgNTy0aMle-367" value="" style="shape=partialRectangle;connectable=0;fillColor=none;top=0;left=0;bottom=0;right=0;editable=1;overflow=hidden;whiteSpace=wrap;html=1;" parent="kvEU20mS_WYgNTy0aMle-366" vertex="1">
          <mxGeometry width="30" height="30" as="geometry">
            <mxRectangle width="30" height="30" as="alternateBounds" />
          </mxGeometry>
        </mxCell>
        <mxCell id="kvEU20mS_WYgNTy0aMle-368" value="first_name" style="shape=partialRectangle;connectable=0;fillColor=none;top=0;left=0;bottom=0;right=0;align=left;spacingLeft=6;overflow=hidden;whiteSpace=wrap;html=1;" parent="kvEU20mS_WYgNTy0aMle-366" vertex="1">
          <mxGeometry x="30" width="200" height="30" as="geometry">
            <mxRectangle width="200" height="30" as="alternateBounds" />
          </mxGeometry>
        </mxCell>
        <mxCell id="kvEU20mS_WYgNTy0aMle-369" value="" style="shape=tableRow;horizontal=0;startSize=0;swimlaneHead=0;swimlaneBody=0;fillColor=none;collapsible=0;dropTarget=0;points=[[0,0.5],[1,0.5]];portConstraint=eastwest;top=0;left=0;right=0;bottom=0;" parent="kvEU20mS_WYgNTy0aMle-362" vertex="1">
          <mxGeometry y="90" width="230" height="30" as="geometry" />
        </mxCell>
        <mxCell id="kvEU20mS_WYgNTy0aMle-370" value="" style="shape=partialRectangle;connectable=0;fillColor=none;top=0;left=0;bottom=0;right=0;editable=1;overflow=hidden;whiteSpace=wrap;html=1;" parent="kvEU20mS_WYgNTy0aMle-369" vertex="1">
          <mxGeometry width="30" height="30" as="geometry">
            <mxRectangle width="30" height="30" as="alternateBounds" />
          </mxGeometry>
        </mxCell>
        <mxCell id="kvEU20mS_WYgNTy0aMle-371" value="last_name" style="shape=partialRectangle;connectable=0;fillColor=none;top=0;left=0;bottom=0;right=0;align=left;spacingLeft=6;overflow=hidden;whiteSpace=wrap;html=1;" parent="kvEU20mS_WYgNTy0aMle-369" vertex="1">
          <mxGeometry x="30" width="200" height="30" as="geometry">
            <mxRectangle width="200" height="30" as="alternateBounds" />
          </mxGeometry>
        </mxCell>
        <mxCell id="kvEU20mS_WYgNTy0aMle-372" value="" style="shape=tableRow;horizontal=0;startSize=0;swimlaneHead=0;swimlaneBody=0;fillColor=none;collapsible=0;dropTarget=0;points=[[0,0.5],[1,0.5]];portConstraint=eastwest;top=0;left=0;right=0;bottom=0;" parent="kvEU20mS_WYgNTy0aMle-362" vertex="1">
          <mxGeometry y="120" width="230" height="30" as="geometry" />
        </mxCell>
        <mxCell id="kvEU20mS_WYgNTy0aMle-373" value="" style="shape=partialRectangle;connectable=0;fillColor=none;top=0;left=0;bottom=0;right=0;editable=1;overflow=hidden;whiteSpace=wrap;html=1;" parent="kvEU20mS_WYgNTy0aMle-372" vertex="1">
          <mxGeometry width="30" height="30" as="geometry">
            <mxRectangle width="30" height="30" as="alternateBounds" />
          </mxGeometry>
        </mxCell>
        <mxCell id="kvEU20mS_WYgNTy0aMle-374" value="dob" style="shape=partialRectangle;connectable=0;fillColor=none;top=0;left=0;bottom=0;right=0;align=left;spacingLeft=6;overflow=hidden;whiteSpace=wrap;html=1;" parent="kvEU20mS_WYgNTy0aMle-372" vertex="1">
          <mxGeometry x="30" width="200" height="30" as="geometry">
            <mxRectangle width="200" height="30" as="alternateBounds" />
          </mxGeometry>
        </mxCell>
        <mxCell id="kvEU20mS_WYgNTy0aMle-375" value="" style="shape=tableRow;horizontal=0;startSize=0;swimlaneHead=0;swimlaneBody=0;fillColor=none;collapsible=0;dropTarget=0;points=[[0,0.5],[1,0.5]];portConstraint=eastwest;top=0;left=0;right=0;bottom=0;" parent="kvEU20mS_WYgNTy0aMle-362" vertex="1">
          <mxGeometry y="150" width="230" height="30" as="geometry" />
        </mxCell>
        <mxCell id="kvEU20mS_WYgNTy0aMle-376" value="" style="shape=partialRectangle;connectable=0;fillColor=none;top=0;left=0;bottom=0;right=0;editable=1;overflow=hidden;whiteSpace=wrap;html=1;" parent="kvEU20mS_WYgNTy0aMle-375" vertex="1">
          <mxGeometry width="30" height="30" as="geometry">
            <mxRectangle width="30" height="30" as="alternateBounds" />
          </mxGeometry>
        </mxCell>
        <mxCell id="kvEU20mS_WYgNTy0aMle-377" value="gender" style="shape=partialRectangle;connectable=0;fillColor=none;top=0;left=0;bottom=0;right=0;align=left;spacingLeft=6;overflow=hidden;whiteSpace=wrap;html=1;" parent="kvEU20mS_WYgNTy0aMle-375" vertex="1">
          <mxGeometry x="30" width="200" height="30" as="geometry">
            <mxRectangle width="200" height="30" as="alternateBounds" />
          </mxGeometry>
        </mxCell>
        <mxCell id="kvEU20mS_WYgNTy0aMle-378" value="" style="shape=tableRow;horizontal=0;startSize=0;swimlaneHead=0;swimlaneBody=0;fillColor=none;collapsible=0;dropTarget=0;points=[[0,0.5],[1,0.5]];portConstraint=eastwest;top=0;left=0;right=0;bottom=0;" parent="kvEU20mS_WYgNTy0aMle-362" vertex="1">
          <mxGeometry y="180" width="230" height="30" as="geometry" />
        </mxCell>
        <mxCell id="kvEU20mS_WYgNTy0aMle-379" value="" style="shape=partialRectangle;connectable=0;fillColor=none;top=0;left=0;bottom=0;right=0;editable=1;overflow=hidden;whiteSpace=wrap;html=1;" parent="kvEU20mS_WYgNTy0aMle-378" vertex="1">
          <mxGeometry width="30" height="30" as="geometry">
            <mxRectangle width="30" height="30" as="alternateBounds" />
          </mxGeometry>
        </mxCell>
        <mxCell id="kvEU20mS_WYgNTy0aMle-380" value="subject" style="shape=partialRectangle;connectable=0;fillColor=none;top=0;left=0;bottom=0;right=0;align=left;spacingLeft=6;overflow=hidden;whiteSpace=wrap;html=1;" parent="kvEU20mS_WYgNTy0aMle-378" vertex="1">
          <mxGeometry x="30" width="200" height="30" as="geometry">
            <mxRectangle width="200" height="30" as="alternateBounds" />
          </mxGeometry>
        </mxCell>
        <mxCell id="kvEU20mS_WYgNTy0aMle-381" value="" style="shape=tableRow;horizontal=0;startSize=0;swimlaneHead=0;swimlaneBody=0;fillColor=none;collapsible=0;dropTarget=0;points=[[0,0.5],[1,0.5]];portConstraint=eastwest;top=0;left=0;right=0;bottom=0;" parent="kvEU20mS_WYgNTy0aMle-362" vertex="1">
          <mxGeometry y="210" width="230" height="30" as="geometry" />
        </mxCell>
        <mxCell id="kvEU20mS_WYgNTy0aMle-382" value="" style="shape=partialRectangle;connectable=0;fillColor=none;top=0;left=0;bottom=0;right=0;editable=1;overflow=hidden;whiteSpace=wrap;html=1;" parent="kvEU20mS_WYgNTy0aMle-381" vertex="1">
          <mxGeometry width="30" height="30" as="geometry">
            <mxRectangle width="30" height="30" as="alternateBounds" />
          </mxGeometry>
        </mxCell>
        <mxCell id="kvEU20mS_WYgNTy0aMle-383" value="email" style="shape=partialRectangle;connectable=0;fillColor=none;top=0;left=0;bottom=0;right=0;align=left;spacingLeft=6;overflow=hidden;whiteSpace=wrap;html=1;" parent="kvEU20mS_WYgNTy0aMle-381" vertex="1">
          <mxGeometry x="30" width="200" height="30" as="geometry">
            <mxRectangle width="200" height="30" as="alternateBounds" />
          </mxGeometry>
        </mxCell>
        <mxCell id="kvEU20mS_WYgNTy0aMle-384" value="" style="shape=tableRow;horizontal=0;startSize=0;swimlaneHead=0;swimlaneBody=0;fillColor=none;collapsible=0;dropTarget=0;points=[[0,0.5],[1,0.5]];portConstraint=eastwest;top=0;left=0;right=0;bottom=0;" parent="kvEU20mS_WYgNTy0aMle-362" vertex="1">
          <mxGeometry y="240" width="230" height="30" as="geometry" />
        </mxCell>
        <mxCell id="kvEU20mS_WYgNTy0aMle-385" value="" style="shape=partialRectangle;connectable=0;fillColor=none;top=0;left=0;bottom=0;right=0;editable=1;overflow=hidden;whiteSpace=wrap;html=1;" parent="kvEU20mS_WYgNTy0aMle-384" vertex="1">
          <mxGeometry width="30" height="30" as="geometry">
            <mxRectangle width="30" height="30" as="alternateBounds" />
          </mxGeometry>
        </mxCell>
        <mxCell id="kvEU20mS_WYgNTy0aMle-386" value="phone_number" style="shape=partialRectangle;connectable=0;fillColor=none;top=0;left=0;bottom=0;right=0;align=left;spacingLeft=6;overflow=hidden;whiteSpace=wrap;html=1;" parent="kvEU20mS_WYgNTy0aMle-384" vertex="1">
          <mxGeometry x="30" width="200" height="30" as="geometry">
            <mxRectangle width="200" height="30" as="alternateBounds" />
          </mxGeometry>
        </mxCell>
        <mxCell id="kvEU20mS_WYgNTy0aMle-387" value="" style="shape=tableRow;horizontal=0;startSize=0;swimlaneHead=0;swimlaneBody=0;fillColor=none;collapsible=0;dropTarget=0;points=[[0,0.5],[1,0.5]];portConstraint=eastwest;top=0;left=0;right=0;bottom=0;" parent="kvEU20mS_WYgNTy0aMle-362" vertex="1">
          <mxGeometry y="270" width="230" height="30" as="geometry" />
        </mxCell>
        <mxCell id="kvEU20mS_WYgNTy0aMle-388" value="FK" style="shape=partialRectangle;connectable=0;fillColor=none;top=0;left=0;bottom=0;right=0;editable=1;overflow=hidden;whiteSpace=wrap;html=1;" parent="kvEU20mS_WYgNTy0aMle-387" vertex="1">
          <mxGeometry width="30" height="30" as="geometry">
            <mxRectangle width="30" height="30" as="alternateBounds" />
          </mxGeometry>
        </mxCell>
        <mxCell id="kvEU20mS_WYgNTy0aMle-389" value="department" style="shape=partialRectangle;connectable=0;fillColor=none;top=0;left=0;bottom=0;right=0;align=left;spacingLeft=6;overflow=hidden;whiteSpace=wrap;html=1;" parent="kvEU20mS_WYgNTy0aMle-387" vertex="1">
          <mxGeometry x="30" width="200" height="30" as="geometry">
            <mxRectangle width="200" height="30" as="alternateBounds" />
          </mxGeometry>
        </mxCell>
        <mxCell id="UCZaBWwdT_9S7CiNXxmz-31" value="" style="shape=tableRow;horizontal=0;startSize=0;swimlaneHead=0;swimlaneBody=0;fillColor=none;collapsible=0;dropTarget=0;points=[[0,0.5],[1,0.5]];portConstraint=eastwest;top=0;left=0;right=0;bottom=0;" parent="kvEU20mS_WYgNTy0aMle-362" vertex="1">
          <mxGeometry y="300" width="230" height="30" as="geometry" />
        </mxCell>
        <mxCell id="UCZaBWwdT_9S7CiNXxmz-32" value="FK" style="shape=partialRectangle;connectable=0;fillColor=none;top=0;left=0;bottom=0;right=0;editable=1;overflow=hidden;whiteSpace=wrap;html=1;" parent="UCZaBWwdT_9S7CiNXxmz-31" vertex="1">
          <mxGeometry width="30" height="30" as="geometry">
            <mxRectangle width="30" height="30" as="alternateBounds" />
          </mxGeometry>
        </mxCell>
        <mxCell id="UCZaBWwdT_9S7CiNXxmz-33" value="account" style="shape=partialRectangle;connectable=0;fillColor=none;top=0;left=0;bottom=0;right=0;align=left;spacingLeft=6;overflow=hidden;whiteSpace=wrap;html=1;" parent="UCZaBWwdT_9S7CiNXxmz-31" vertex="1">
          <mxGeometry x="30" width="200" height="30" as="geometry">
            <mxRectangle width="200" height="30" as="alternateBounds" />
          </mxGeometry>
        </mxCell>
        <mxCell id="kvEU20mS_WYgNTy0aMle-390" value="Subject" style="shape=table;startSize=30;container=1;collapsible=1;childLayout=tableLayout;fixedRows=1;rowLines=0;fontStyle=1;align=center;resizeLast=1;html=1;strokeWidth=2;" parent="1" vertex="1">
          <mxGeometry x="4070" y="-470" width="230" height="180.00000000000023" as="geometry" />
        </mxCell>
        <mxCell id="kvEU20mS_WYgNTy0aMle-391" value="" style="shape=tableRow;horizontal=0;startSize=0;swimlaneHead=0;swimlaneBody=0;fillColor=none;collapsible=0;dropTarget=0;points=[[0,0.5],[1,0.5]];portConstraint=eastwest;top=0;left=0;right=0;bottom=1;" parent="kvEU20mS_WYgNTy0aMle-390" vertex="1">
          <mxGeometry y="30" width="230" height="30" as="geometry" />
        </mxCell>
        <mxCell id="kvEU20mS_WYgNTy0aMle-392" value="PK" style="shape=partialRectangle;connectable=0;fillColor=none;top=0;left=0;bottom=0;right=0;fontStyle=1;overflow=hidden;whiteSpace=wrap;html=1;" parent="kvEU20mS_WYgNTy0aMle-391" vertex="1">
          <mxGeometry width="30" height="30" as="geometry">
            <mxRectangle width="30" height="30" as="alternateBounds" />
          </mxGeometry>
        </mxCell>
        <mxCell id="kvEU20mS_WYgNTy0aMle-393" value="id" style="shape=partialRectangle;connectable=0;fillColor=none;top=0;left=0;bottom=0;right=0;align=left;spacingLeft=6;fontStyle=5;overflow=hidden;whiteSpace=wrap;html=1;" parent="kvEU20mS_WYgNTy0aMle-391" vertex="1">
          <mxGeometry x="30" width="200" height="30" as="geometry">
            <mxRectangle width="200" height="30" as="alternateBounds" />
          </mxGeometry>
        </mxCell>
        <mxCell id="kvEU20mS_WYgNTy0aMle-394" value="" style="shape=tableRow;horizontal=0;startSize=0;swimlaneHead=0;swimlaneBody=0;fillColor=none;collapsible=0;dropTarget=0;points=[[0,0.5],[1,0.5]];portConstraint=eastwest;top=0;left=0;right=0;bottom=0;" parent="kvEU20mS_WYgNTy0aMle-390" vertex="1">
          <mxGeometry y="60" width="230" height="40" as="geometry" />
        </mxCell>
        <mxCell id="kvEU20mS_WYgNTy0aMle-395" value="" style="shape=partialRectangle;connectable=0;fillColor=none;top=0;left=0;bottom=0;right=0;editable=1;overflow=hidden;whiteSpace=wrap;html=1;" parent="kvEU20mS_WYgNTy0aMle-394" vertex="1">
          <mxGeometry width="30" height="40" as="geometry">
            <mxRectangle width="30" height="40" as="alternateBounds" />
          </mxGeometry>
        </mxCell>
        <mxCell id="kvEU20mS_WYgNTy0aMle-396" value="name" style="shape=partialRectangle;connectable=0;fillColor=none;top=0;left=0;bottom=0;right=0;align=left;spacingLeft=6;overflow=hidden;whiteSpace=wrap;html=1;" parent="kvEU20mS_WYgNTy0aMle-394" vertex="1">
          <mxGeometry x="30" width="200" height="40" as="geometry">
            <mxRectangle width="200" height="40" as="alternateBounds" />
          </mxGeometry>
        </mxCell>
        <mxCell id="kvEU20mS_WYgNTy0aMle-397" value="" style="shape=tableRow;horizontal=0;startSize=0;swimlaneHead=0;swimlaneBody=0;fillColor=none;collapsible=0;dropTarget=0;points=[[0,0.5],[1,0.5]];portConstraint=eastwest;top=0;left=0;right=0;bottom=0;" parent="kvEU20mS_WYgNTy0aMle-390" vertex="1">
          <mxGeometry y="100" width="230" height="40" as="geometry" />
        </mxCell>
        <mxCell id="kvEU20mS_WYgNTy0aMle-398" value="" style="shape=partialRectangle;connectable=0;fillColor=none;top=0;left=0;bottom=0;right=0;editable=1;overflow=hidden;whiteSpace=wrap;html=1;" parent="kvEU20mS_WYgNTy0aMle-397" vertex="1">
          <mxGeometry width="30" height="40" as="geometry">
            <mxRectangle width="30" height="40" as="alternateBounds" />
          </mxGeometry>
        </mxCell>
        <mxCell id="kvEU20mS_WYgNTy0aMle-399" value="code" style="shape=partialRectangle;connectable=0;fillColor=none;top=0;left=0;bottom=0;right=0;align=left;spacingLeft=6;overflow=hidden;whiteSpace=wrap;html=1;perimeterSpacing=0;strokeWidth=2;" parent="kvEU20mS_WYgNTy0aMle-397" vertex="1">
          <mxGeometry x="30" width="200" height="40" as="geometry">
            <mxRectangle width="200" height="40" as="alternateBounds" />
          </mxGeometry>
        </mxCell>
        <mxCell id="kvEU20mS_WYgNTy0aMle-400" value="" style="shape=tableRow;horizontal=0;startSize=0;swimlaneHead=0;swimlaneBody=0;fillColor=none;collapsible=0;dropTarget=0;points=[[0,0.5],[1,0.5]];portConstraint=eastwest;top=0;left=0;right=0;bottom=0;" parent="kvEU20mS_WYgNTy0aMle-390" vertex="1">
          <mxGeometry y="140" width="230" height="40" as="geometry" />
        </mxCell>
        <mxCell id="kvEU20mS_WYgNTy0aMle-401" value="" style="shape=partialRectangle;connectable=0;fillColor=none;top=0;left=0;bottom=0;right=0;editable=1;overflow=hidden;whiteSpace=wrap;html=1;" parent="kvEU20mS_WYgNTy0aMle-400" vertex="1">
          <mxGeometry width="30" height="40" as="geometry">
            <mxRectangle width="30" height="40" as="alternateBounds" />
          </mxGeometry>
        </mxCell>
        <mxCell id="kvEU20mS_WYgNTy0aMle-402" value="credit" style="shape=partialRectangle;connectable=0;fillColor=none;top=0;left=0;bottom=0;right=0;align=left;spacingLeft=6;overflow=hidden;whiteSpace=wrap;html=1;" parent="kvEU20mS_WYgNTy0aMle-400" vertex="1">
          <mxGeometry x="30" width="200" height="40" as="geometry">
            <mxRectangle width="200" height="40" as="alternateBounds" />
          </mxGeometry>
        </mxCell>
        <mxCell id="kvEU20mS_WYgNTy0aMle-403" value="Exam" style="shape=table;startSize=30;container=1;collapsible=1;childLayout=tableLayout;fixedRows=1;rowLines=0;fontStyle=1;align=center;resizeLast=1;html=1;strokeWidth=2;" parent="1" vertex="1">
          <mxGeometry x="3710" y="320" width="230" height="180" as="geometry" />
        </mxCell>
        <mxCell id="kvEU20mS_WYgNTy0aMle-404" value="" style="shape=tableRow;horizontal=0;startSize=0;swimlaneHead=0;swimlaneBody=0;fillColor=none;collapsible=0;dropTarget=0;points=[[0,0.5],[1,0.5]];portConstraint=eastwest;top=0;left=0;right=0;bottom=1;" parent="kvEU20mS_WYgNTy0aMle-403" vertex="1">
          <mxGeometry y="30" width="230" height="30" as="geometry" />
        </mxCell>
        <mxCell id="kvEU20mS_WYgNTy0aMle-405" value="PK" style="shape=partialRectangle;connectable=0;fillColor=none;top=0;left=0;bottom=0;right=0;fontStyle=1;overflow=hidden;whiteSpace=wrap;html=1;" parent="kvEU20mS_WYgNTy0aMle-404" vertex="1">
          <mxGeometry width="30" height="30" as="geometry">
            <mxRectangle width="30" height="30" as="alternateBounds" />
          </mxGeometry>
        </mxCell>
        <mxCell id="kvEU20mS_WYgNTy0aMle-406" value="id" style="shape=partialRectangle;connectable=0;fillColor=none;top=0;left=0;bottom=0;right=0;align=left;spacingLeft=6;fontStyle=5;overflow=hidden;whiteSpace=wrap;html=1;" parent="kvEU20mS_WYgNTy0aMle-404" vertex="1">
          <mxGeometry x="30" width="200" height="30" as="geometry">
            <mxRectangle width="200" height="30" as="alternateBounds" />
          </mxGeometry>
        </mxCell>
        <mxCell id="kvEU20mS_WYgNTy0aMle-407" value="" style="shape=tableRow;horizontal=0;startSize=0;swimlaneHead=0;swimlaneBody=0;fillColor=none;collapsible=0;dropTarget=0;points=[[0,0.5],[1,0.5]];portConstraint=eastwest;top=0;left=0;right=0;bottom=0;" parent="kvEU20mS_WYgNTy0aMle-403" vertex="1">
          <mxGeometry y="60" width="230" height="40" as="geometry" />
        </mxCell>
        <mxCell id="kvEU20mS_WYgNTy0aMle-408" value="Fk" style="shape=partialRectangle;connectable=0;fillColor=none;top=0;left=0;bottom=0;right=0;editable=1;overflow=hidden;whiteSpace=wrap;html=1;" parent="kvEU20mS_WYgNTy0aMle-407" vertex="1">
          <mxGeometry width="30" height="40" as="geometry">
            <mxRectangle width="30" height="40" as="alternateBounds" />
          </mxGeometry>
        </mxCell>
        <mxCell id="kvEU20mS_WYgNTy0aMle-409" value="class_id" style="shape=partialRectangle;connectable=0;fillColor=none;top=0;left=0;bottom=0;right=0;align=left;spacingLeft=6;overflow=hidden;whiteSpace=wrap;html=1;" parent="kvEU20mS_WYgNTy0aMle-407" vertex="1">
          <mxGeometry x="30" width="200" height="40" as="geometry">
            <mxRectangle width="200" height="40" as="alternateBounds" />
          </mxGeometry>
        </mxCell>
        <mxCell id="UCZaBWwdT_9S7CiNXxmz-16" value="" style="shape=tableRow;horizontal=0;startSize=0;swimlaneHead=0;swimlaneBody=0;fillColor=none;collapsible=0;dropTarget=0;points=[[0,0.5],[1,0.5]];portConstraint=eastwest;top=0;left=0;right=0;bottom=0;" parent="kvEU20mS_WYgNTy0aMle-403" vertex="1">
          <mxGeometry y="100" width="230" height="40" as="geometry" />
        </mxCell>
        <mxCell id="UCZaBWwdT_9S7CiNXxmz-17" value="" style="shape=partialRectangle;connectable=0;fillColor=none;top=0;left=0;bottom=0;right=0;editable=1;overflow=hidden;whiteSpace=wrap;html=1;" parent="UCZaBWwdT_9S7CiNXxmz-16" vertex="1">
          <mxGeometry width="30" height="40" as="geometry">
            <mxRectangle width="30" height="40" as="alternateBounds" />
          </mxGeometry>
        </mxCell>
        <mxCell id="UCZaBWwdT_9S7CiNXxmz-18" value="type" style="shape=partialRectangle;connectable=0;fillColor=none;top=0;left=0;bottom=0;right=0;align=left;spacingLeft=6;overflow=hidden;whiteSpace=wrap;html=1;" parent="UCZaBWwdT_9S7CiNXxmz-16" vertex="1">
          <mxGeometry x="30" width="200" height="40" as="geometry">
            <mxRectangle width="200" height="40" as="alternateBounds" />
          </mxGeometry>
        </mxCell>
        <mxCell id="UCZaBWwdT_9S7CiNXxmz-19" value="" style="shape=tableRow;horizontal=0;startSize=0;swimlaneHead=0;swimlaneBody=0;fillColor=none;collapsible=0;dropTarget=0;points=[[0,0.5],[1,0.5]];portConstraint=eastwest;top=0;left=0;right=0;bottom=0;" parent="kvEU20mS_WYgNTy0aMle-403" vertex="1">
          <mxGeometry y="140" width="230" height="40" as="geometry" />
        </mxCell>
        <mxCell id="UCZaBWwdT_9S7CiNXxmz-20" value="" style="shape=partialRectangle;connectable=0;fillColor=none;top=0;left=0;bottom=0;right=0;editable=1;overflow=hidden;whiteSpace=wrap;html=1;" parent="UCZaBWwdT_9S7CiNXxmz-19" vertex="1">
          <mxGeometry width="30" height="40" as="geometry">
            <mxRectangle width="30" height="40" as="alternateBounds" />
          </mxGeometry>
        </mxCell>
        <mxCell id="UCZaBWwdT_9S7CiNXxmz-21" value="name" style="shape=partialRectangle;connectable=0;fillColor=none;top=0;left=0;bottom=0;right=0;align=left;spacingLeft=6;overflow=hidden;whiteSpace=wrap;html=1;" parent="UCZaBWwdT_9S7CiNXxmz-19" vertex="1">
          <mxGeometry x="30" width="200" height="40" as="geometry">
            <mxRectangle width="200" height="40" as="alternateBounds" />
          </mxGeometry>
        </mxCell>
        <mxCell id="7FcBl5BKOvR5fV5m9UgP-1" style="edgeStyle=none;curved=1;rounded=0;orthogonalLoop=1;jettySize=auto;html=1;fontSize=12;startSize=8;endSize=8;" parent="kvEU20mS_WYgNTy0aMle-403" source="UCZaBWwdT_9S7CiNXxmz-19" target="UCZaBWwdT_9S7CiNXxmz-19" edge="1">
          <mxGeometry relative="1" as="geometry" />
        </mxCell>
        <mxCell id="kvEU20mS_WYgNTy0aMle-429" value="Deparment" style="shape=table;startSize=30;container=1;collapsible=1;childLayout=tableLayout;fixedRows=1;rowLines=0;fontStyle=1;align=center;resizeLast=1;html=1;strokeWidth=2;" parent="1" vertex="1">
          <mxGeometry x="2840" y="-360" width="230" height="100" as="geometry" />
        </mxCell>
        <mxCell id="kvEU20mS_WYgNTy0aMle-430" value="" style="shape=tableRow;horizontal=0;startSize=0;swimlaneHead=0;swimlaneBody=0;fillColor=none;collapsible=0;dropTarget=0;points=[[0,0.5],[1,0.5]];portConstraint=eastwest;top=0;left=0;right=0;bottom=1;" parent="kvEU20mS_WYgNTy0aMle-429" vertex="1">
          <mxGeometry y="30" width="230" height="30" as="geometry" />
        </mxCell>
        <mxCell id="kvEU20mS_WYgNTy0aMle-431" value="PK" style="shape=partialRectangle;connectable=0;fillColor=none;top=0;left=0;bottom=0;right=0;fontStyle=1;overflow=hidden;whiteSpace=wrap;html=1;" parent="kvEU20mS_WYgNTy0aMle-430" vertex="1">
          <mxGeometry width="30" height="30" as="geometry">
            <mxRectangle width="30" height="30" as="alternateBounds" />
          </mxGeometry>
        </mxCell>
        <mxCell id="kvEU20mS_WYgNTy0aMle-432" value="id" style="shape=partialRectangle;connectable=0;fillColor=none;top=0;left=0;bottom=0;right=0;align=left;spacingLeft=6;fontStyle=5;overflow=hidden;whiteSpace=wrap;html=1;" parent="kvEU20mS_WYgNTy0aMle-430" vertex="1">
          <mxGeometry x="30" width="200" height="30" as="geometry">
            <mxRectangle width="200" height="30" as="alternateBounds" />
          </mxGeometry>
        </mxCell>
        <mxCell id="kvEU20mS_WYgNTy0aMle-433" value="" style="shape=tableRow;horizontal=0;startSize=0;swimlaneHead=0;swimlaneBody=0;fillColor=none;collapsible=0;dropTarget=0;points=[[0,0.5],[1,0.5]];portConstraint=eastwest;top=0;left=0;right=0;bottom=0;" parent="kvEU20mS_WYgNTy0aMle-429" vertex="1">
          <mxGeometry y="60" width="230" height="40" as="geometry" />
        </mxCell>
        <mxCell id="kvEU20mS_WYgNTy0aMle-434" value="" style="shape=partialRectangle;connectable=0;fillColor=none;top=0;left=0;bottom=0;right=0;editable=1;overflow=hidden;whiteSpace=wrap;html=1;" parent="kvEU20mS_WYgNTy0aMle-433" vertex="1">
          <mxGeometry width="30" height="40" as="geometry">
            <mxRectangle width="30" height="40" as="alternateBounds" />
          </mxGeometry>
        </mxCell>
        <mxCell id="kvEU20mS_WYgNTy0aMle-435" value="name" style="shape=partialRectangle;connectable=0;fillColor=none;top=0;left=0;bottom=0;right=0;align=left;spacingLeft=6;overflow=hidden;whiteSpace=wrap;html=1;" parent="kvEU20mS_WYgNTy0aMle-433" vertex="1">
          <mxGeometry x="30" width="200" height="40" as="geometry">
            <mxRectangle width="200" height="40" as="alternateBounds" />
          </mxGeometry>
        </mxCell>
        <mxCell id="kvEU20mS_WYgNTy0aMle-436" value="" style="edgeStyle=elbowEdgeStyle;fontSize=12;html=1;endArrow=ERoneToMany;startArrow=ERmandOne;rounded=1;startSize=8;endSize=8;strokeWidth=2;elbow=vertical;entryX=0;entryY=0.5;entryDx=0;entryDy=0;exitX=0;exitY=0.5;exitDx=0;exitDy=0;" parent="1" source="kvEU20mS_WYgNTy0aMle-430" target="kvEU20mS_WYgNTy0aMle-359" edge="1">
          <mxGeometry width="100" height="100" relative="1" as="geometry">
            <mxPoint x="2670" y="120" as="sourcePoint" />
            <mxPoint x="2800" y="50" as="targetPoint" />
            <Array as="points">
              <mxPoint x="2760" y="90" />
            </Array>
          </mxGeometry>
        </mxCell>
        <mxCell id="kvEU20mS_WYgNTy0aMle-437" value="" style="edgeStyle=elbowEdgeStyle;fontSize=12;html=1;endArrow=ERoneToMany;startArrow=ERmandOne;rounded=1;startSize=8;endSize=8;strokeWidth=2;entryX=0;entryY=0.5;entryDx=0;entryDy=0;exitX=1;exitY=0.5;exitDx=0;exitDy=0;" parent="1" source="kvEU20mS_WYgNTy0aMle-430" target="kvEU20mS_WYgNTy0aMle-387" edge="1">
          <mxGeometry width="100" height="100" relative="1" as="geometry">
            <mxPoint x="3200" y="190" as="sourcePoint" />
            <mxPoint x="3390" y="270" as="targetPoint" />
          </mxGeometry>
        </mxCell>
        <mxCell id="kvEU20mS_WYgNTy0aMle-448" value="" style="edgeStyle=elbowEdgeStyle;fontSize=12;html=1;endArrow=ERoneToMany;startArrow=ERmandOne;rounded=1;startSize=8;endSize=8;strokeWidth=2;entryX=0;entryY=0.5;entryDx=0;entryDy=0;exitX=1;exitY=0.5;exitDx=0;exitDy=0;" parent="1" source="kvEU20mS_WYgNTy0aMle-363" target="kvEU20mS_WYgNTy0aMle-493" edge="1">
          <mxGeometry width="100" height="100" relative="1" as="geometry">
            <mxPoint x="3090" y="-465" as="sourcePoint" />
            <mxPoint x="3720" y="-315" as="targetPoint" />
          </mxGeometry>
        </mxCell>
        <mxCell id="kvEU20mS_WYgNTy0aMle-449" value="" style="edgeStyle=elbowEdgeStyle;fontSize=12;html=1;endArrow=ERoneToMany;startArrow=ERmandOne;rounded=1;startSize=8;endSize=8;strokeWidth=2;exitX=0;exitY=0.5;exitDx=0;exitDy=0;entryX=0.999;entryY=0.353;entryDx=0;entryDy=0;entryPerimeter=0;" parent="1" source="kvEU20mS_WYgNTy0aMle-391" target="kvEU20mS_WYgNTy0aMle-496" edge="1">
          <mxGeometry width="100" height="100" relative="1" as="geometry">
            <mxPoint x="3950" y="-190" as="sourcePoint" />
            <mxPoint x="3960" y="-260" as="targetPoint" />
            <Array as="points">
              <mxPoint x="3960" y="-330" />
            </Array>
          </mxGeometry>
        </mxCell>
        <mxCell id="kvEU20mS_WYgNTy0aMle-459" value="" style="edgeStyle=elbowEdgeStyle;fontSize=12;html=1;endArrow=ERoneToMany;startArrow=ERmandOne;rounded=1;startSize=8;endSize=8;strokeWidth=2;exitX=1;exitY=0.5;exitDx=0;exitDy=0;entryX=0;entryY=0.5;entryDx=0;entryDy=0;" parent="1" source="kvEU20mS_WYgNTy0aMle-323" target="kvEU20mS_WYgNTy0aMle-509" edge="1">
          <mxGeometry width="100" height="100" relative="1" as="geometry">
            <mxPoint x="3070" y="50" as="sourcePoint" />
            <mxPoint x="3320" y="34.99999999999977" as="targetPoint" />
            <Array as="points" />
          </mxGeometry>
        </mxCell>
        <mxCell id="kvEU20mS_WYgNTy0aMle-489" value="Class" style="shape=table;startSize=30;container=1;collapsible=1;childLayout=tableLayout;fixedRows=1;rowLines=0;fontStyle=1;align=center;resizeLast=1;html=1;strokeWidth=2;" parent="1" vertex="1">
          <mxGeometry x="3580" y="-440" width="230" height="180.00000000000023" as="geometry" />
        </mxCell>
        <mxCell id="kvEU20mS_WYgNTy0aMle-490" value="" style="shape=tableRow;horizontal=0;startSize=0;swimlaneHead=0;swimlaneBody=0;fillColor=none;collapsible=0;dropTarget=0;points=[[0,0.5],[1,0.5]];portConstraint=eastwest;top=0;left=0;right=0;bottom=1;" parent="kvEU20mS_WYgNTy0aMle-489" vertex="1">
          <mxGeometry y="30" width="230" height="30" as="geometry" />
        </mxCell>
        <mxCell id="kvEU20mS_WYgNTy0aMle-491" value="PK" style="shape=partialRectangle;connectable=0;fillColor=none;top=0;left=0;bottom=0;right=0;fontStyle=1;overflow=hidden;whiteSpace=wrap;html=1;" parent="kvEU20mS_WYgNTy0aMle-490" vertex="1">
          <mxGeometry width="30" height="30" as="geometry">
            <mxRectangle width="30" height="30" as="alternateBounds" />
          </mxGeometry>
        </mxCell>
        <mxCell id="kvEU20mS_WYgNTy0aMle-492" value="id" style="shape=partialRectangle;connectable=0;fillColor=none;top=0;left=0;bottom=0;right=0;align=left;spacingLeft=6;fontStyle=5;overflow=hidden;whiteSpace=wrap;html=1;" parent="kvEU20mS_WYgNTy0aMle-490" vertex="1">
          <mxGeometry x="30" width="200" height="30" as="geometry">
            <mxRectangle width="200" height="30" as="alternateBounds" />
          </mxGeometry>
        </mxCell>
        <mxCell id="kvEU20mS_WYgNTy0aMle-493" value="" style="shape=tableRow;horizontal=0;startSize=0;swimlaneHead=0;swimlaneBody=0;fillColor=none;collapsible=0;dropTarget=0;points=[[0,0.5],[1,0.5]];portConstraint=eastwest;top=0;left=0;right=0;bottom=0;" parent="kvEU20mS_WYgNTy0aMle-489" vertex="1">
          <mxGeometry y="60" width="230" height="40" as="geometry" />
        </mxCell>
        <mxCell id="kvEU20mS_WYgNTy0aMle-494" value="FK" style="shape=partialRectangle;connectable=0;fillColor=none;top=0;left=0;bottom=0;right=0;editable=1;overflow=hidden;whiteSpace=wrap;html=1;" parent="kvEU20mS_WYgNTy0aMle-493" vertex="1">
          <mxGeometry width="30" height="40" as="geometry">
            <mxRectangle width="30" height="40" as="alternateBounds" />
          </mxGeometry>
        </mxCell>
        <mxCell id="kvEU20mS_WYgNTy0aMle-495" value="teacher_id" style="shape=partialRectangle;connectable=0;fillColor=none;top=0;left=0;bottom=0;right=0;align=left;spacingLeft=6;overflow=hidden;whiteSpace=wrap;html=1;" parent="kvEU20mS_WYgNTy0aMle-493" vertex="1">
          <mxGeometry x="30" width="200" height="40" as="geometry">
            <mxRectangle width="200" height="40" as="alternateBounds" />
          </mxGeometry>
        </mxCell>
        <mxCell id="kvEU20mS_WYgNTy0aMle-496" value="" style="shape=tableRow;horizontal=0;startSize=0;swimlaneHead=0;swimlaneBody=0;fillColor=none;collapsible=0;dropTarget=0;points=[[0,0.5],[1,0.5]];portConstraint=eastwest;top=0;left=0;right=0;bottom=0;" parent="kvEU20mS_WYgNTy0aMle-489" vertex="1">
          <mxGeometry y="100" width="230" height="40" as="geometry" />
        </mxCell>
        <mxCell id="kvEU20mS_WYgNTy0aMle-497" value="FK" style="shape=partialRectangle;connectable=0;fillColor=none;top=0;left=0;bottom=0;right=0;editable=1;overflow=hidden;whiteSpace=wrap;html=1;" parent="kvEU20mS_WYgNTy0aMle-496" vertex="1">
          <mxGeometry width="30" height="40" as="geometry">
            <mxRectangle width="30" height="40" as="alternateBounds" />
          </mxGeometry>
        </mxCell>
        <mxCell id="kvEU20mS_WYgNTy0aMle-498" value="subject_id" style="shape=partialRectangle;connectable=0;fillColor=none;top=0;left=0;bottom=0;right=0;align=left;spacingLeft=6;overflow=hidden;whiteSpace=wrap;html=1;perimeterSpacing=0;strokeWidth=2;" parent="kvEU20mS_WYgNTy0aMle-496" vertex="1">
          <mxGeometry x="30" width="200" height="40" as="geometry">
            <mxRectangle width="200" height="40" as="alternateBounds" />
          </mxGeometry>
        </mxCell>
        <mxCell id="UCZaBWwdT_9S7CiNXxmz-22" value="" style="shape=tableRow;horizontal=0;startSize=0;swimlaneHead=0;swimlaneBody=0;fillColor=none;collapsible=0;dropTarget=0;points=[[0,0.5],[1,0.5]];portConstraint=eastwest;top=0;left=0;right=0;bottom=0;" parent="kvEU20mS_WYgNTy0aMle-489" vertex="1">
          <mxGeometry y="140" width="230" height="40" as="geometry" />
        </mxCell>
        <mxCell id="UCZaBWwdT_9S7CiNXxmz-23" value="" style="shape=partialRectangle;connectable=0;fillColor=none;top=0;left=0;bottom=0;right=0;editable=1;overflow=hidden;whiteSpace=wrap;html=1;" parent="UCZaBWwdT_9S7CiNXxmz-22" vertex="1">
          <mxGeometry width="30" height="40" as="geometry">
            <mxRectangle width="30" height="40" as="alternateBounds" />
          </mxGeometry>
        </mxCell>
        <mxCell id="UCZaBWwdT_9S7CiNXxmz-24" value="name" style="shape=partialRectangle;connectable=0;fillColor=none;top=0;left=0;bottom=0;right=0;align=left;spacingLeft=6;overflow=hidden;whiteSpace=wrap;html=1;perimeterSpacing=0;strokeWidth=2;" parent="UCZaBWwdT_9S7CiNXxmz-22" vertex="1">
          <mxGeometry x="30" width="200" height="40" as="geometry">
            <mxRectangle width="200" height="40" as="alternateBounds" />
          </mxGeometry>
        </mxCell>
        <mxCell id="kvEU20mS_WYgNTy0aMle-505" value="Result" style="shape=table;startSize=30;container=1;collapsible=1;childLayout=tableLayout;fixedRows=1;rowLines=0;fontStyle=1;align=center;resizeLast=1;html=1;strokeWidth=2;" parent="1" vertex="1">
          <mxGeometry x="3270" y="290" width="230" height="180.00000000000023" as="geometry" />
        </mxCell>
        <mxCell id="kvEU20mS_WYgNTy0aMle-506" value="" style="shape=tableRow;horizontal=0;startSize=0;swimlaneHead=0;swimlaneBody=0;fillColor=none;collapsible=0;dropTarget=0;points=[[0,0.5],[1,0.5]];portConstraint=eastwest;top=0;left=0;right=0;bottom=1;" parent="kvEU20mS_WYgNTy0aMle-505" vertex="1">
          <mxGeometry y="30" width="230" height="30" as="geometry" />
        </mxCell>
        <mxCell id="kvEU20mS_WYgNTy0aMle-507" value="PK" style="shape=partialRectangle;connectable=0;fillColor=none;top=0;left=0;bottom=0;right=0;fontStyle=1;overflow=hidden;whiteSpace=wrap;html=1;" parent="kvEU20mS_WYgNTy0aMle-506" vertex="1">
          <mxGeometry width="30" height="30" as="geometry">
            <mxRectangle width="30" height="30" as="alternateBounds" />
          </mxGeometry>
        </mxCell>
        <mxCell id="kvEU20mS_WYgNTy0aMle-508" value="id" style="shape=partialRectangle;connectable=0;fillColor=none;top=0;left=0;bottom=0;right=0;align=left;spacingLeft=6;fontStyle=5;overflow=hidden;whiteSpace=wrap;html=1;" parent="kvEU20mS_WYgNTy0aMle-506" vertex="1">
          <mxGeometry x="30" width="200" height="30" as="geometry">
            <mxRectangle width="200" height="30" as="alternateBounds" />
          </mxGeometry>
        </mxCell>
        <mxCell id="kvEU20mS_WYgNTy0aMle-509" value="" style="shape=tableRow;horizontal=0;startSize=0;swimlaneHead=0;swimlaneBody=0;fillColor=none;collapsible=0;dropTarget=0;points=[[0,0.5],[1,0.5]];portConstraint=eastwest;top=0;left=0;right=0;bottom=0;" parent="kvEU20mS_WYgNTy0aMle-505" vertex="1">
          <mxGeometry y="60" width="230" height="40" as="geometry" />
        </mxCell>
        <mxCell id="kvEU20mS_WYgNTy0aMle-510" value="Fk" style="shape=partialRectangle;connectable=0;fillColor=none;top=0;left=0;bottom=0;right=0;editable=1;overflow=hidden;whiteSpace=wrap;html=1;" parent="kvEU20mS_WYgNTy0aMle-509" vertex="1">
          <mxGeometry width="30" height="40" as="geometry">
            <mxRectangle width="30" height="40" as="alternateBounds" />
          </mxGeometry>
        </mxCell>
        <mxCell id="kvEU20mS_WYgNTy0aMle-511" value="student_id" style="shape=partialRectangle;connectable=0;fillColor=none;top=0;left=0;bottom=0;right=0;align=left;spacingLeft=6;overflow=hidden;whiteSpace=wrap;html=1;" parent="kvEU20mS_WYgNTy0aMle-509" vertex="1">
          <mxGeometry x="30" width="200" height="40" as="geometry">
            <mxRectangle width="200" height="40" as="alternateBounds" />
          </mxGeometry>
        </mxCell>
        <mxCell id="kvEU20mS_WYgNTy0aMle-522" value="" style="shape=tableRow;horizontal=0;startSize=0;swimlaneHead=0;swimlaneBody=0;fillColor=none;collapsible=0;dropTarget=0;points=[[0,0.5],[1,0.5]];portConstraint=eastwest;top=0;left=0;right=0;bottom=0;" parent="kvEU20mS_WYgNTy0aMle-505" vertex="1">
          <mxGeometry y="100" width="230" height="40" as="geometry" />
        </mxCell>
        <mxCell id="kvEU20mS_WYgNTy0aMle-523" value="FK" style="shape=partialRectangle;connectable=0;fillColor=none;top=0;left=0;bottom=0;right=0;editable=1;overflow=hidden;whiteSpace=wrap;html=1;" parent="kvEU20mS_WYgNTy0aMle-522" vertex="1">
          <mxGeometry width="30" height="40" as="geometry">
            <mxRectangle width="30" height="40" as="alternateBounds" />
          </mxGeometry>
        </mxCell>
        <mxCell id="kvEU20mS_WYgNTy0aMle-524" value="exam_id" style="shape=partialRectangle;connectable=0;fillColor=none;top=0;left=0;bottom=0;right=0;align=left;spacingLeft=6;overflow=hidden;whiteSpace=wrap;html=1;perimeterSpacing=0;strokeWidth=2;" parent="kvEU20mS_WYgNTy0aMle-522" vertex="1">
          <mxGeometry x="30" width="200" height="40" as="geometry">
            <mxRectangle width="200" height="40" as="alternateBounds" />
          </mxGeometry>
        </mxCell>
        <mxCell id="kvEU20mS_WYgNTy0aMle-525" value="" style="shape=tableRow;horizontal=0;startSize=0;swimlaneHead=0;swimlaneBody=0;fillColor=none;collapsible=0;dropTarget=0;points=[[0,0.5],[1,0.5]];portConstraint=eastwest;top=0;left=0;right=0;bottom=0;" parent="kvEU20mS_WYgNTy0aMle-505" vertex="1">
          <mxGeometry y="140" width="230" height="40" as="geometry" />
        </mxCell>
        <mxCell id="kvEU20mS_WYgNTy0aMle-526" value="" style="shape=partialRectangle;connectable=0;fillColor=none;top=0;left=0;bottom=0;right=0;editable=1;overflow=hidden;whiteSpace=wrap;html=1;" parent="kvEU20mS_WYgNTy0aMle-525" vertex="1">
          <mxGeometry width="30" height="40" as="geometry">
            <mxRectangle width="30" height="40" as="alternateBounds" />
          </mxGeometry>
        </mxCell>
        <mxCell id="kvEU20mS_WYgNTy0aMle-527" value="score" style="shape=partialRectangle;connectable=0;fillColor=none;top=0;left=0;bottom=0;right=0;align=left;spacingLeft=6;overflow=hidden;whiteSpace=wrap;html=1;perimeterSpacing=0;strokeWidth=2;" parent="kvEU20mS_WYgNTy0aMle-525" vertex="1">
          <mxGeometry x="30" width="200" height="40" as="geometry">
            <mxRectangle width="200" height="40" as="alternateBounds" />
          </mxGeometry>
        </mxCell>
        <mxCell id="kvEU20mS_WYgNTy0aMle-521" value="" style="edgeStyle=elbowEdgeStyle;fontSize=12;html=1;endArrow=ERoneToMany;startArrow=ERmandOne;rounded=1;startSize=8;endSize=8;strokeWidth=2;exitX=1;exitY=0.5;exitDx=0;exitDy=0;entryX=1;entryY=0.5;entryDx=0;entryDy=0;" parent="1" source="kvEU20mS_WYgNTy0aMle-490" target="kvEU20mS_WYgNTy0aMle-407" edge="1">
          <mxGeometry width="100" height="100" relative="1" as="geometry">
            <mxPoint x="3870" y="-39" as="sourcePoint" />
            <mxPoint x="3630" y="-40" as="targetPoint" />
            <Array as="points">
              <mxPoint x="3990" y="-140" />
            </Array>
          </mxGeometry>
        </mxCell>
        <mxCell id="kvEU20mS_WYgNTy0aMle-528" value="" style="edgeStyle=elbowEdgeStyle;fontSize=12;html=1;endArrow=ERoneToMany;startArrow=ERmandOne;rounded=1;startSize=8;endSize=8;strokeWidth=2;entryX=0;entryY=0.5;entryDx=0;entryDy=0;exitX=1;exitY=0.5;exitDx=0;exitDy=0;" parent="1" source="kvEU20mS_WYgNTy0aMle-522" target="kvEU20mS_WYgNTy0aMle-404" edge="1">
          <mxGeometry width="100" height="100" relative="1" as="geometry">
            <mxPoint x="3770" y="-60" as="sourcePoint" />
            <mxPoint x="3570" y="545" as="targetPoint" />
            <Array as="points">
              <mxPoint x="3590" y="350" />
            </Array>
          </mxGeometry>
        </mxCell>
        <mxCell id="UCZaBWwdT_9S7CiNXxmz-1" value="Enroll" style="shape=table;startSize=30;container=1;collapsible=1;childLayout=tableLayout;fixedRows=1;rowLines=0;fontStyle=1;align=center;resizeLast=1;html=1;strokeWidth=2;" parent="1" vertex="1">
          <mxGeometry x="3390" y="25" width="230" height="140.00000000000023" as="geometry" />
        </mxCell>
        <mxCell id="UCZaBWwdT_9S7CiNXxmz-2" value="" style="shape=tableRow;horizontal=0;startSize=0;swimlaneHead=0;swimlaneBody=0;fillColor=none;collapsible=0;dropTarget=0;points=[[0,0.5],[1,0.5]];portConstraint=eastwest;top=0;left=0;right=0;bottom=1;" parent="UCZaBWwdT_9S7CiNXxmz-1" vertex="1">
          <mxGeometry y="30" width="230" height="30" as="geometry" />
        </mxCell>
        <mxCell id="UCZaBWwdT_9S7CiNXxmz-3" value="PK" style="shape=partialRectangle;connectable=0;fillColor=none;top=0;left=0;bottom=0;right=0;fontStyle=1;overflow=hidden;whiteSpace=wrap;html=1;" parent="UCZaBWwdT_9S7CiNXxmz-2" vertex="1">
          <mxGeometry width="30" height="30" as="geometry">
            <mxRectangle width="30" height="30" as="alternateBounds" />
          </mxGeometry>
        </mxCell>
        <mxCell id="UCZaBWwdT_9S7CiNXxmz-4" value="id" style="shape=partialRectangle;connectable=0;fillColor=none;top=0;left=0;bottom=0;right=0;align=left;spacingLeft=6;fontStyle=5;overflow=hidden;whiteSpace=wrap;html=1;" parent="UCZaBWwdT_9S7CiNXxmz-2" vertex="1">
          <mxGeometry x="30" width="200" height="30" as="geometry">
            <mxRectangle width="200" height="30" as="alternateBounds" />
          </mxGeometry>
        </mxCell>
        <mxCell id="UCZaBWwdT_9S7CiNXxmz-5" value="" style="shape=tableRow;horizontal=0;startSize=0;swimlaneHead=0;swimlaneBody=0;fillColor=none;collapsible=0;dropTarget=0;points=[[0,0.5],[1,0.5]];portConstraint=eastwest;top=0;left=0;right=0;bottom=0;" parent="UCZaBWwdT_9S7CiNXxmz-1" vertex="1">
          <mxGeometry y="60" width="230" height="40" as="geometry" />
        </mxCell>
        <mxCell id="UCZaBWwdT_9S7CiNXxmz-6" value="Fk" style="shape=partialRectangle;connectable=0;fillColor=none;top=0;left=0;bottom=0;right=0;editable=1;overflow=hidden;whiteSpace=wrap;html=1;" parent="UCZaBWwdT_9S7CiNXxmz-5" vertex="1">
          <mxGeometry width="30" height="40" as="geometry">
            <mxRectangle width="30" height="40" as="alternateBounds" />
          </mxGeometry>
        </mxCell>
        <mxCell id="UCZaBWwdT_9S7CiNXxmz-7" value="student_id" style="shape=partialRectangle;connectable=0;fillColor=none;top=0;left=0;bottom=0;right=0;align=left;spacingLeft=6;overflow=hidden;whiteSpace=wrap;html=1;" parent="UCZaBWwdT_9S7CiNXxmz-5" vertex="1">
          <mxGeometry x="30" width="200" height="40" as="geometry">
            <mxRectangle width="200" height="40" as="alternateBounds" />
          </mxGeometry>
        </mxCell>
        <mxCell id="UCZaBWwdT_9S7CiNXxmz-8" value="" style="shape=tableRow;horizontal=0;startSize=0;swimlaneHead=0;swimlaneBody=0;fillColor=none;collapsible=0;dropTarget=0;points=[[0,0.5],[1,0.5]];portConstraint=eastwest;top=0;left=0;right=0;bottom=0;" parent="UCZaBWwdT_9S7CiNXxmz-1" vertex="1">
          <mxGeometry y="100" width="230" height="40" as="geometry" />
        </mxCell>
        <mxCell id="UCZaBWwdT_9S7CiNXxmz-9" value="FK" style="shape=partialRectangle;connectable=0;fillColor=none;top=0;left=0;bottom=0;right=0;editable=1;overflow=hidden;whiteSpace=wrap;html=1;" parent="UCZaBWwdT_9S7CiNXxmz-8" vertex="1">
          <mxGeometry width="30" height="40" as="geometry">
            <mxRectangle width="30" height="40" as="alternateBounds" />
          </mxGeometry>
        </mxCell>
        <mxCell id="UCZaBWwdT_9S7CiNXxmz-10" value="class" style="shape=partialRectangle;connectable=0;fillColor=none;top=0;left=0;bottom=0;right=0;align=left;spacingLeft=6;overflow=hidden;whiteSpace=wrap;html=1;perimeterSpacing=0;strokeWidth=2;" parent="UCZaBWwdT_9S7CiNXxmz-8" vertex="1">
          <mxGeometry x="30" width="200" height="40" as="geometry">
            <mxRectangle width="200" height="40" as="alternateBounds" />
          </mxGeometry>
        </mxCell>
        <mxCell id="UCZaBWwdT_9S7CiNXxmz-14" value="" style="edgeStyle=elbowEdgeStyle;fontSize=12;html=1;endArrow=ERoneToMany;startArrow=ERmandOne;rounded=1;startSize=8;endSize=8;strokeWidth=2;exitX=1;exitY=0.5;exitDx=0;exitDy=0;entryX=0;entryY=0.5;entryDx=0;entryDy=0;" parent="1" source="kvEU20mS_WYgNTy0aMle-323" target="UCZaBWwdT_9S7CiNXxmz-5" edge="1">
          <mxGeometry width="100" height="100" relative="1" as="geometry">
            <mxPoint x="3080" y="45" as="sourcePoint" />
            <mxPoint x="3280" y="380" as="targetPoint" />
            <Array as="points" />
          </mxGeometry>
        </mxCell>
        <mxCell id="UCZaBWwdT_9S7CiNXxmz-15" value="" style="edgeStyle=elbowEdgeStyle;fontSize=12;html=1;endArrow=ERoneToMany;startArrow=ERmandOne;rounded=1;startSize=8;endSize=8;strokeWidth=2;exitX=1;exitY=0.5;exitDx=0;exitDy=0;entryX=1;entryY=0.5;entryDx=0;entryDy=0;" parent="1" source="kvEU20mS_WYgNTy0aMle-490" target="UCZaBWwdT_9S7CiNXxmz-8" edge="1">
          <mxGeometry width="100" height="100" relative="1" as="geometry">
            <mxPoint x="3080" y="45" as="sourcePoint" />
            <mxPoint x="3400" y="115" as="targetPoint" />
            <Array as="points">
              <mxPoint x="3880" y="-110" />
            </Array>
          </mxGeometry>
        </mxCell>
        <mxCell id="UCZaBWwdT_9S7CiNXxmz-30" style="edgeStyle=elbowEdgeStyle;rounded=0;orthogonalLoop=1;jettySize=auto;html=1;endArrow=ERmandOne;endFill=0;exitX=0;exitY=0.5;exitDx=0;exitDy=0;entryX=1;entryY=0.5;entryDx=0;entryDy=0;strokeWidth=2;startArrow=ERmandOne;startFill=0;" parent="1" source="kvEU20mS_WYgNTy0aMle-323" target="uvcMTvgXLrwL3tuYFdFg-1" edge="1">
          <mxGeometry relative="1" as="geometry">
            <mxPoint x="2390" y="-89" as="targetPoint" />
            <mxPoint x="2180" y="188" as="sourcePoint" />
          </mxGeometry>
        </mxCell>
        <mxCell id="UCZaBWwdT_9S7CiNXxmz-34" style="edgeStyle=elbowEdgeStyle;rounded=0;orthogonalLoop=1;jettySize=auto;html=1;endArrow=ERmandOne;endFill=0;exitX=0;exitY=0.5;exitDx=0;exitDy=0;entryX=1;entryY=0.5;entryDx=0;entryDy=0;strokeWidth=2;startArrow=ERmandOne;startFill=0;" parent="1" source="kvEU20mS_WYgNTy0aMle-363" target="uvcMTvgXLrwL3tuYFdFg-4" edge="1">
          <mxGeometry relative="1" as="geometry">
            <mxPoint x="2590" y="235" as="targetPoint" />
            <mxPoint x="2810" y="435" as="sourcePoint" />
            <Array as="points">
              <mxPoint x="2650" y="50" />
            </Array>
          </mxGeometry>
        </mxCell>
      </root>
    </mxGraphModel>
  </diagram>
</mxfile>
